<?xml version="1.0" standalone="no"?>
<!DOCTYPE svg PUBLIC "-//W3C//DTD SVG 20010904//EN"
 "http://www.w3.org/TR/2001/REC-SVG-20010904/DTD/svg10.dtd">
<svg version="1.0" xmlns="http://www.w3.org/2000/svg"
 width="450.000000pt" height="450.000000pt" viewBox="0 0 450.000000 450.000000"
 preserveAspectRatio="xMidYMid meet">
<metadata>
Created by potrace 1.11, written by Peter Selinger 2001-2013
</metadata>
<g transform="translate(0.000000,450.000000) scale(0.100000,-0.100000)"
fill="#000000" stroke="none">
<path d="M2549 3665 c0 -6 -2 -20 -3 -32 -1 -12 1 -28 5 -35 5 -7 -5 -22 -24
-40 -35 -31 -30 -37 9 -12 18 12 38 15 76 12 l52 -5 -34 16 c-24 11 -38 27
-46 49 -10 33 -33 63 -35 47z"/>
<path d="M2545 3534 c-60 -30 -70 -56 -72 -194 -2 -144 -4 -160 -20 -178 -20
-21 3 -60 33 -54 15 3 24 0 24 -8 0 -7 7 -10 15 -6 8 3 15 1 15 -4 0 -6 5 -10
11 -10 5 0 7 5 4 10 -3 6 -2 10 3 10 6 0 13 -8 16 -17 6 -15 8 -15 17 -3 8 13
10 13 19 0 8 -13 10 -13 10 -1 0 11 3 12 11 4 6 -6 18 -9 25 -6 8 3 14 -1 14
-8 0 -11 3 -11 11 1 8 12 12 12 16 2 4 -10 8 -10 19 -1 11 9 14 8 14 -7 0 -16
2 -17 10 -4 8 11 12 12 18 3 4 -7 20 -10 40 -7 17 3 32 1 32 -3 0 -5 16 -7 36
-5 21 3 34 1 31 -5 -3 -5 2 -9 12 -9 18 0 24 36 6 36 -5 1 1 10 14 21 l24 20
-19 39 c-21 44 -22 45 -47 26 -11 -9 -15 -20 -11 -31 6 -16 5 -16 -17 -4 -13
7 -27 13 -30 12 -15 -4 5 49 22 58 21 11 23 18 10 38 -7 10 -13 11 -30 2 -12
-7 -19 -16 -16 -21 7 -11 -14 -54 -22 -46 -3 3 0 13 7 22 8 9 10 18 4 22 -5 4
-19 29 -32 56 -21 44 -22 50 -7 66 15 16 14 18 -1 24 -9 3 -24 1 -33 -6 -14
-12 -15 -11 -2 5 30 38 -29 142 -95 167 -34 13 -54 12 -89 -6z m174 -106 c20
-33 8 -27 -24 10 -22 26 -24 32 -9 22 12 -7 27 -22 33 -32z m-208 -2 c-7 -8
-8 -16 -3 -18 5 -1 1 -16 -9 -33 l-19 -30 0 28 c0 15 5 27 11 27 5 0 7 5 4 10
-7 11 14 44 23 35 3 -2 0 -11 -7 -19z m94 -254 c-3 -3 -11 0 -18 7 -9 10 -8
11 6 5 10 -3 15 -9 12 -12z m60 -22 c3 -6 -1 -7 -9 -4 -18 7 -21 14 -7 14 6 0
13 -4 16 -10z m114 -4 c-2 -2 -15 -7 -29 -10 l-25 -7 25 15 c21 12 42 14 29 2z
m78 -33 c-8 -7 -37 9 -31 19 3 5 12 4 20 -3 8 -6 13 -14 11 -16z"/>
<path d="M2407 3084 c-21 -14 -36 -29 -32 -32 3 -4 10 0 15 8 6 8 10 11 10 6
0 -5 6 -3 13 3 8 6 16 8 19 6 3 -3 8 3 11 15 3 11 4 20 3 20 -1 0 -19 -12 -39
-26z"/>
<path d="M2963 3087 c-45 -20 -30 -59 22 -59 14 0 25 -5 25 -11 0 -6 2 -8 5
-6 6 7 -14 77 -23 82 -4 3 -17 0 -29 -6z"/>
<path d="M2330 3030 c-14 -11 -20 -20 -15 -19 13 0 50 28 44 33 -2 3 -15 -4
-29 -14z"/>
<path d="M2426 3024 c-11 -7 -18 -16 -15 -18 2 -2 13 2 23 10 11 7 18 16 15
18 -2 2 -13 -2 -23 -10z"/>
<path d="M2510 3030 c0 -5 5 -10 11 -10 5 0 7 5 4 10 -3 6 -8 10 -11 10 -2 0
-4 -4 -4 -10z"/>
<path d="M2381 2993 c0 -5 4 -17 9 -28 8 -17 8 -16 7 8 -1 15 -5 27 -9 27 -4
0 -8 -3 -7 -7z"/>
<path d="M2407 2945 c-26 -20 -52 -33 -58 -30 -5 4 -9 3 -8 -2 1 -4 -1 -15 -4
-23 -6 -15 -44 -249 -53 -325 -2 -22 -9 -62 -14 -90 -5 -27 -12 -69 -15 -93
-16 -112 -130 -213 -388 -343 -39 -20 -140 -51 -277 -84 -405 -99 -534 -125
-785 -155 -237 -29 -353 -44 -595 -75 -87 -11 -150 -19 -202 -24 -5 -1 -8 -37
-8 -81 0 -90 -4 -86 84 -69 31 7 59 9 62 6 3 -3 -13 -33 -36 -67 -40 -59 -42
-60 -76 -54 l-34 6 0 -82 0 -82 19 23 c11 13 22 21 26 17 8 -8 -23 -58 -36
-58 -5 0 -9 -47 -9 -105 0 -58 3 -105 8 -105 4 0 67 13 140 29 144 30 147 29
140 -25 -3 -26 -12 -32 -140 -80 -75 -28 -140 -49 -143 -46 -3 3 -5 -31 -5
-76 0 -46 5 -84 10 -87 7 -4 7 -11 2 -18 -5 -7 -9 -29 -9 -49 l-1 -37 37 23
c20 13 89 57 153 99 65 42 119 73 121 69 3 -4 7 -39 11 -78 l7 -71 -158 -63
c-87 -35 -162 -67 -168 -73 -6 -6 -3 -7 10 -4 58 17 75 19 75 8 0 -6 -7 -12
-15 -12 -24 -2 -29 -4 -42 -12 -7 -5 -17 -6 -22 -3 -4 3 -9 -33 -10 -79 -2
-66 1 -84 11 -80 7 2 31 6 53 9 22 3 57 10 78 15 24 6 37 5 37 -1 0 -7 5 -7
13 0 7 6 22 11 32 11 11 1 97 4 191 7 154 6 182 4 275 -16 114 -24 175 -49
209 -85 21 -22 22 -27 11 -71 -7 -26 -19 -56 -27 -68 -7 -11 -14 -32 -14 -46
0 -14 -9 -43 -20 -65 -36 -71 -32 -75 71 -75 76 0 90 2 86 15 -4 8 -2 17 3 20
9 6 14 -8 11 -27 -2 -13 78 -9 114 6 19 8 34 12 34 8 -3 -19 3 -22 17 -8 8 9
21 13 27 9 6 -4 26 -7 44 -6 18 0 33 -4 33 -9 0 -5 123 -8 284 -8 l285 1 -15
37 c-8 20 -24 54 -35 75 -17 32 -18 37 -5 37 9 0 16 6 16 14 0 11 8 12 36 6
20 -5 42 -6 49 -4 7 3 16 0 21 -7 5 -9 2 -10 -9 -6 -10 3 -17 2 -17 -3 0 -6 4
-10 9 -10 5 0 16 -6 23 -12 8 -7 23 -18 35 -25 20 -12 22 -10 20 20 -2 28 2
32 28 38 17 4 49 7 72 8 l41 1 32 -78 c31 -74 50 -107 50 -86 0 5 -13 41 -30
79 -38 91 -38 100 2 99 47 -1 78 -13 78 -30 0 -8 -3 -14 -7 -14 -5 0 -8 -32
-9 -70 -1 -82 12 -87 33 -14 18 59 24 66 58 66 41 0 41 -9 -3 -61 -23 -27 -42
-52 -42 -55 0 -17 22 -1 51 39 19 24 39 45 45 45 17 0 77 -67 70 -79 -11 -17
61 -14 76 3 11 12 16 12 31 -2 29 -26 31 -5 3 28 -34 41 -34 61 2 59 15 0 36
2 47 4 31 7 45 -11 45 -59 0 -24 5 -44 10 -44 6 0 10 23 10 50 0 43 3 50 18
48 9 -2 23 -8 30 -15 7 -7 20 -9 29 -6 15 6 16 5 3 -9 -9 -10 -19 -13 -26 -7
-8 7 -8 -1 0 -26 l11 -35 695 0 c521 1 698 4 709 13 11 9 15 9 18 0 4 -12 43
-19 43 -8 0 3 -7 17 -16 30 -14 21 -14 30 -4 55 7 17 14 30 16 30 19 0 176
-86 184 -100 8 -16 21 -20 60 -20 28 0 50 5 50 10 0 6 -15 24 -33 40 -28 25
-39 49 -77 175 -41 139 -42 147 -26 163 17 16 21 14 75 -46 l58 -63 1 39 c1
28 -4 44 -18 57 -24 22 -26 37 -4 33 27 -5 27 17 0 32 -14 7 -23 17 -20 22 3
5 -6 6 -19 3 -19 -5 -28 -2 -36 14 -18 33 17 62 65 54 47 -8 43 17 -5 29 -17
5 -29 13 -26 19 4 5 11 6 17 3 7 -4 8 -2 4 4 -4 7 -1 12 6 12 9 0 9 3 -2 10
-13 8 -13 10 1 10 20 0 42 49 37 81 -2 18 -11 25 -33 29 -27 5 -30 8 -27 40 2
19 15 67 30 105 33 91 42 201 16 219 -16 12 -16 14 2 25 17 11 17 11 -6 6
l-25 -6 25 21 c22 19 22 20 3 11 -12 -6 -24 -7 -27 -3 -16 26 -85 196 -81 200
2 3 32 0 65 -5 l60 -10 0 44 c0 32 -4 43 -15 43 -8 0 -15 5 -15 11 0 6 7 9 15
5 8 -3 15 -1 15 4 0 6 -5 10 -10 10 -6 0 -5 8 2 21 11 17 10 22 -4 30 -10 6
-18 14 -18 19 0 5 8 7 18 3 11 -4 14 -3 7 4 -5 6 -47 26 -93 44 -46 18 -79 35
-74 37 9 3 94 -16 157 -35 17 -5 18 -4 6 11 -11 13 -11 16 0 17 8 0 -2 7 -21
14 l-35 13 33 1 c26 1 33 5 30 19 -3 13 -19 19 -73 25 -48 6 -71 5 -73 -2 -2
-6 -16 -10 -30 -10 -24 2 -25 2 -4 6 34 7 16 23 -26 23 -68 0 -77 7 -106 77
-15 36 -25 67 -24 69 2 2 77 -31 167 -72 90 -40 166 -74 168 -74 2 0 3 14 1
32 -3 29 -9 34 -123 85 -66 30 -145 65 -177 77 -95 40 -402 235 -541 345 -174
138 -422 383 -412 408 4 10 12 41 17 68 11 48 10 52 -25 105 l-35 56 -349 53
c-191 29 -359 55 -373 57 -17 3 -40 -7 -73 -31z m168 -65 c8 -13 -15 -13 -35
0 -12 8 -11 10 7 10 12 0 25 -4 28 -10z m-75 -24 c0 -3 -4 -8 -10 -11 -5 -3
-10 -1 -10 4 0 6 5 11 10 11 6 0 10 -2 10 -4z m745 -346 c3 -5 1 -10 -4 -10
-6 0 -11 5 -11 10 0 6 2 10 4 10 3 0 8 -4 11 -10z m65 -15 c20 -24 6 -28 -15
-5 -10 11 -13 20 -8 20 6 0 16 -7 23 -15z m-30 -35 c0 -5 -4 -10 -10 -10 -5 0
-10 5 -10 10 0 6 5 10 10 10 6 0 10 -4 10 -10z m74 -16 c10 -25 7 -34 -9 -34
-18 0 -20 16 -2 23 7 3 5 6 -5 6 -10 1 -18 -5 -18 -11 0 -14 -20 11 -20 25 0
14 48 7 54 -9z m-74 -32 c0 -4 -6 -14 -12 -21 -11 -10 -10 -11 5 -6 12 5 17 2
17 -9 0 -9 -8 -16 -17 -16 -17 -1 -17 -1 0 -11 20 -12 23 -31 3 -23 -18 7 -40
59 -32 79 6 15 36 21 36 7z m118 -27 c-9 -9 -30 14 -23 25 6 9 10 8 17 -4 6
-10 8 -19 6 -21z m-67 5 c21 -12 26 -40 7 -40 -7 0 -18 11 -25 25 -12 28 -10
30 18 15z m91 -46 c-18 -13 0 -29 23 -20 17 6 45 -2 45 -13 0 -4 -12 -13 -26
-19 -14 -7 -23 -8 -19 -3 3 5 0 13 -6 17 -7 4 -9 3 -6 -3 9 -14 -29 -38 -71
-47 -36 -8 -37 -6 -20 41 9 24 18 33 35 33 13 0 23 5 23 10 0 6 -3 9 -7 9 -19
-3 -33 2 -33 12 0 7 10 9 25 5 19 -5 25 -3 25 11 0 15 2 15 14 -2 12 -17 12
-21 -2 -31z m-82 -14 c0 -5 -7 -10 -15 -10 -8 0 -15 5 -15 10 0 6 7 10 15 10
8 0 15 -4 15 -10z m-48 -68 c5 -2 8 -8 8 -12 0 -5 -12 -2 -27 6 -35 18 -40 18
-40 -1 0 -8 4 -15 9 -15 4 0 8 -4 8 -10 0 -5 -11 -10 -25 -10 -27 0 -34 17
-11 26 8 3 13 15 11 26 -2 11 1 25 8 32 9 10 16 8 32 -13 11 -14 23 -27 27
-29z m213 -14 c-12 -55 -25 -80 -38 -75 -6 2 -11 17 -10 33 2 27 2 27 -7 7 -5
-13 -16 -23 -25 -23 -21 0 -20 4 23 49 46 51 66 54 57 9z m-88 -3 c0 -8 -9
-22 -19 -32 -10 -9 -18 -11 -18 -5 0 6 8 16 18 21 9 6 12 11 7 11 -6 0 -16 -5
-23 -12 -9 -9 -15 -9 -24 0 -9 9 -8 12 3 16 8 2 21 7 29 9 24 9 27 8 27 -8z
m126 -45 c2 -20 7 -41 11 -49 12 -19 1 -23 -28 -10 -29 13 -32 30 -15 78 13
38 27 30 32 -19z m67 9 c42 -37 44 -40 23 -45 -32 -9 -18 -24 21 -24 34 0 87
-29 54 -30 -9 0 -19 -6 -22 -12 -3 -9 -8 -8 -16 5 -6 9 -23 17 -38 17 -15 0
-34 5 -42 10 -13 9 -13 11 0 20 9 6 11 10 3 10 -14 0 -27 23 -37 63 -9 36 0
34 54 -14z m-1362 4 c-2 -10 -11 -19 -21 -21 -16 -3 -17 -1 -5 17 16 25 31 27
26 4z m1049 1 c-3 -3 -12 -4 -19 -1 -8 3 -5 6 6 6 11 1 17 -2 13 -5z m-72 -24
c3 -5 -3 -10 -15 -10 -12 0 -18 5 -15 10 3 6 10 10 15 10 5 0 12 -4 15 -10z
m-950 -10 c3 -5 1 -10 -4 -10 -6 0 -11 5 -11 10 0 6 2 10 4 10 3 0 8 -4 11
-10z m1015 0 c0 -5 -6 -10 -14 -10 -8 0 -18 5 -21 10 -3 6 3 10 14 10 12 0 21
-4 21 -10z m-55 -20 c3 -5 -1 -10 -9 -10 -9 0 -16 5 -16 10 0 6 4 10 9 10 6 0
13 -4 16 -10z m45 -25 c0 -21 -29 -31 -43 -15 -8 9 -8 11 -1 7 7 -4 17 0 24 8
16 19 20 19 20 0z m80 -10 c0 -14 -4 -25 -10 -25 -8 0 -8 23 -1 48 4 12 11 -3
11 -23z m-1183 -15 c-1 -11 -4 -20 -8 -20 -10 0 -17 23 -11 37 6 19 21 6 19
-17z m1033 20 c0 -5 -4 -10 -10 -10 -5 0 -10 5 -10 10 0 6 5 10 10 10 6 0 10
-4 10 -10z m120 -29 c0 -10 3 -33 6 -50 7 -32 6 -32 -27 -29 -42 4 -52 33 -17
47 17 7 19 10 6 10 -21 1 -23 12 -6 29 18 18 38 14 38 -7z m74 3 c10 -27 7
-34 -19 -34 -14 0 -25 4 -25 9 0 20 13 41 25 41 7 0 16 -7 19 -16z m136 1 c28
-15 50 -58 36 -72 -8 -9 -76 57 -76 74 0 17 5 16 40 -2z m-670 -5 c0 -5 -5
-10 -11 -10 -5 0 -7 5 -4 10 3 6 8 10 11 10 2 0 4 -4 4 -10z m345 0 c-3 -5
-11 -10 -16 -10 -6 0 -7 5 -4 10 3 6 11 10 16 10 6 0 7 -4 4 -10z m243 -1 c-2
-6 -8 -10 -13 -10 -5 0 -11 4 -13 10 -2 6 4 11 13 11 9 0 15 -5 13 -11z
m-1303 -29 c9 -16 13 -30 9 -30 -4 0 5 -9 19 -20 23 -18 25 -24 15 -45 -16
-36 -31 -31 -26 9 2 19 0 32 -4 30 -4 -3 -8 -16 -8 -30 0 -19 -5 -24 -26 -24
-26 0 -27 1 -19 48 4 26 7 57 6 70 -1 31 16 27 34 -8z m65 20 c0 -5 -7 -10
-15 -10 -8 0 -15 5 -15 10 0 6 7 10 15 10 8 0 15 -4 15 -10z m1515 0 c3 -6 -1
-13 -10 -16 -19 -8 -30 0 -20 15 8 14 22 14 30 1z m-1656 -21 c4 6 6 -8 6 -32
-3 -65 -3 -67 -27 -67 -19 0 -20 2 -8 10 13 8 12 10 -2 10 -10 0 -18 -4 -18
-9 0 -5 -20 -6 -45 -3 -37 4 -45 2 -45 -12 0 -9 -4 -16 -10 -16 -30 0 4 40 67
79 39 24 50 36 46 49 -6 15 -5 15 12 -1 11 -12 20 -15 24 -8z m1553 -7 c-6 -2
-12 -8 -12 -13 0 -5 11 -3 25 3 34 15 38 8 17 -35 -14 -29 -20 -34 -35 -26 -9
6 -17 20 -17 32 0 12 -4 29 -9 37 -14 22 -2 31 22 18 14 -7 17 -13 9 -16z
m228 -52 c0 -10 -3 -11 -8 -4 -7 11 -45 34 -56 34 -3 0 -6 -6 -6 -13 0 -20 82
-51 92 -34 7 11 12 3 9 -15 0 -4 17 -13 39 -19 42 -13 57 -35 18 -26 -13 3
-69 11 -125 18 -58 7 -103 18 -103 23 0 6 3 21 6 34 5 18 12 22 29 18 15 -4
22 -1 22 9 0 11 -6 13 -20 9 -11 -3 -17 -2 -15 2 3 5 8 17 11 27 6 16 12 14
57 -15 27 -18 50 -40 50 -48z m-682 52 c2 -7 -3 -12 -12 -12 -9 0 -16 7 -16
16 0 17 22 14 28 -4z m350 -25 c23 -23 42 -47 42 -52 0 -5 -5 -4 -12 3 -7 7
-19 12 -27 12 -21 0 -61 40 -61 62 0 27 12 22 58 -25z m-1313 13 c3 -5 2 -10
-4 -10 -5 0 -13 5 -16 10 -3 6 -2 10 4 10 5 0 13 -4 16 -10z m47 -40 c-6 -16
-10 -19 -14 -9 -3 8 -1 25 5 39 13 32 22 4 9 -30z m975 23 c-3 -3 -11 -2 -17
2 -9 6 -9 10 1 16 14 8 27 -7 16 -18z m152 18 c16 -10 6 -31 -15 -31 -8 0 -14
9 -14 20 0 22 7 25 29 11z m-1399 -11 c0 -5 -5 -10 -11 -10 -5 0 -7 5 -4 10 3
6 8 10 11 10 2 0 4 -4 4 -10z m1450 1 c0 -5 9 -11 20 -14 23 -6 27 -27 5 -27
-8 0 -15 5 -15 10 0 6 -11 8 -25 4 -27 -7 -28 -5 -19 20 6 17 34 22 34 7z
m273 -3 c6 -20 -13 -68 -28 -68 -22 0 -24 13 -10 48 14 33 30 41 38 20z m-393
-48 c0 -5 -2 -10 -4 -10 -3 0 -8 5 -11 10 -3 6 -1 10 4 10 6 0 11 -4 11 -10z
m-85 -10 c-3 -5 -10 -10 -16 -10 -5 0 -9 5 -9 10 0 6 7 10 16 10 8 0 12 -4 9
-10z m115 0 c0 -5 -4 -10 -10 -10 -5 0 -10 5 -10 10 0 6 5 10 10 10 6 0 10 -4
10 -10z m-1103 -41 c-6 -10 -16 -19 -21 -19 -4 0 -3 6 3 14 9 11 9 15 0 18 -7
2 -9 10 -5 17 6 9 11 9 21 1 11 -9 12 -16 2 -31z m1163 32 c0 -18 -18 -21 -30
-6 -10 13 -9 15 9 15 11 0 21 -4 21 -9z m65 -1 c4 -6 10 -8 15 -5 11 7 40 -5
40 -16 0 -13 -37 -11 -46 2 -3 6 -15 9 -25 6 -12 -3 -19 0 -19 9 0 16 26 19
35 4z m-1495 -10 c0 -5 -7 -10 -15 -10 -8 0 -15 5 -15 10 0 6 7 10 15 10 8 0
15 -4 15 -10z m30 0 c0 -5 -5 -10 -11 -10 -5 0 -7 5 -4 10 3 6 8 10 11 10 2 0
4 -4 4 -10z m1164 -72 c-3 -12 -12 -17 -21 -14 -8 3 -19 6 -24 6 -8 0 -6 11
13 63 l11 29 14 -33 c7 -18 11 -41 7 -51z m112 69 c8 3 14 0 14 -7 0 -6 -4 -8
-10 -5 -5 3 -10 1 -10 -4 0 -6 5 -11 10 -11 6 0 10 -7 10 -15 0 -8 5 -15 11
-15 5 0 7 5 4 10 -3 6 -1 10 4 10 14 0 14 -37 1 -45 -14 -9 -79 66 -73 83 4 9
9 10 16 3 5 -5 16 -7 23 -4z m294 3 c4 0 10 -6 13 -13 6 -16 -22 -19 -40 -4
-18 14 -16 30 3 23 9 -3 19 -6 24 -6z m-1500 -10 c0 -5 -4 -10 -10 -10 -5 0
-10 5 -10 10 0 6 5 10 10 10 6 0 10 -4 10 -10z m370 -6 c33 -4 63 -11 66 -15
3 -5 10 -7 15 -4 5 4 9 1 9 -4 0 -7 -20 -9 -52 -6 -100 9 -128 16 -128 32 0 9
6 13 14 10 8 -3 42 -9 76 -13z m1550 6 c0 -5 -4 -10 -10 -10 -5 0 -10 5 -10
10 0 6 5 10 10 10 6 0 10 -4 10 -10z m-2085 -10 c3 -5 1 -10 -4 -10 -6 0 -11
5 -11 10 0 6 2 10 4 10 3 0 8 -4 11 -10z m205 0 c0 -5 -4 -10 -10 -10 -5 0
-10 5 -10 10 0 6 5 10 10 10 6 0 10 -4 10 -10z m30 0 c0 -5 -4 -10 -10 -10 -5
0 -10 5 -10 10 0 6 5 10 10 10 6 0 10 -4 10 -10z m-145 -10 c3 -5 -1 -10 -9
-10 -8 0 -18 5 -21 10 -3 6 1 10 9 10 8 0 18 -4 21 -10z m1547 -14 c4 -6 2
-13 -3 -15 -7 -2 -6 -7 2 -13 11 -8 11 -9 -1 -5 -8 2 -14 9 -13 15 2 6 -13 14
-32 18 -19 3 -38 10 -41 15 -8 14 79 -2 88 -15z m383 -2 c119 -17 168 -32 110
-36 -36 -2 -50 -1 -90 6 -16 2 -64 7 -105 10 -58 3 -66 3 -35 -4 22 -5 57 -9
77 -9 20 -1 39 -5 42 -10 8 -12 -33 -19 -64 -11 -16 4 -39 0 -61 -11 -23 -11
-56 -17 -90 -16 -30 0 -45 3 -35 5 12 3 15 7 8 11 -12 7 -5 51 9 51 5 0 6 -7
3 -15 -4 -8 -1 -15 5 -15 6 0 11 6 12 13 0 10 2 10 6 0 2 -7 12 -13 22 -13 9
0 22 -5 29 -12 9 -9 15 -9 23 -1 9 9 -3 20 -45 43 -31 18 -56 34 -56 37 0 6
59 0 235 -23z m-1955 -44 c0 -21 -47 -9 -73 18 -39 41 -33 46 23 17 28 -14 50
-30 50 -35z m-20 50 c0 -5 -4 -10 -9 -10 -6 0 -13 5 -16 10 -3 6 1 10 9 10 9
0 16 -4 16 -10z m110 -11 c0 -15 -4 -19 -16 -15 -9 3 -18 6 -20 6 -2 0 -4 7
-4 15 0 8 9 15 20 15 14 0 20 -7 20 -21z m-200 -40 c0 -5 -11 -9 -25 -9 -26 0
-31 13 -18 46 6 15 8 15 25 -6 10 -12 18 -26 18 -31z m280 31 c0 -22 -22 -35
-44 -27 -9 4 -12 14 -9 26 7 29 53 29 53 1z m86 -6 c-3 -9 -6 -18 -6 -20 0 -3
-4 -3 -10 1 -11 7 -2 35 12 35 6 0 7 -7 4 -16z m184 6 c0 -5 -4 -10 -9 -10 -6
0 -13 5 -16 10 -3 6 1 10 9 10 9 0 16 -4 16 -10z m30 0 c0 -5 -4 -10 -10 -10
-5 0 -10 5 -10 10 0 6 5 10 10 10 6 0 10 -4 10 -10z m811 -12 c23 -28 24 -38
3 -38 -8 0 -12 -5 -9 -10 4 -6 15 -8 25 -5 16 5 38 -10 28 -20 -7 -7 -88 17
-88 26 0 5 6 9 13 9 9 0 8 3 -2 9 -8 5 -11 16 -6 30 8 26 12 26 36 -1z m139 8
c0 -8 -6 -16 -14 -19 -10 -4 -12 0 -9 14 6 22 23 26 23 5z m105 -9 c44 -17 60
-28 60 -42 0 -20 -1 -20 -115 -10 -57 5 -57 5 -40 49 12 32 20 32 95 3z m165
19 c0 -3 -4 -8 -10 -11 -5 -3 -10 -1 -10 4 0 6 5 11 10 11 6 0 10 -2 10 -4z
m-1942 -31 c-9 -21 -18 -25 -52 -25 -23 0 -59 -3 -80 -7 -50 -8 -41 13 9 23
19 3 51 12 72 20 57 20 65 19 51 -11z m172 -13 c-7 -3 -16 2 -21 9 -16 25 -9
32 12 13 13 -12 16 -20 9 -22z m2204 16 c-3 -13 -15 -35 -25 -50 -11 -14 -19
-37 -19 -50 0 -31 -16 -47 -41 -41 -22 6 -24 16 -8 45 10 18 9 20 -5 15 -20
-8 -21 6 -1 23 12 10 15 10 15 -1 0 -8 6 -3 13 11 8 15 21 25 34 24 15 0 24 7
28 23 3 13 8 23 11 23 3 0 2 -10 -2 -22z m-2064 2 c0 -5 -4 -10 -10 -10 -5 0
-10 5 -10 10 0 6 5 10 10 10 6 0 10 -4 10 -10z m-280 -9 c0 -6 -4 -13 -10 -16
-5 -3 -10 1 -10 9 0 9 5 16 10 16 6 0 10 -4 10 -9z m37 -13 c-3 -8 -6 -5 -6 6
-1 11 2 17 5 13 3 -3 4 -12 1 -19z m1543 2 c0 -5 -5 -10 -11 -10 -5 0 -7 5 -4
10 3 6 8 10 11 10 2 0 4 -4 4 -10z m-1290 -20 c0 -4 -11 -7 -25 -7 -24 0 -31
7 -19 19 7 8 44 -2 44 -12z m1104 11 c3 -5 -3 -11 -14 -14 -20 -5 -35 5 -23
17 9 9 31 7 37 -3z m-1314 -10 c0 -5 10 -7 22 -3 14 3 19 1 14 -6 -9 -16 -56
-11 -56 5 0 7 5 13 10 13 6 0 10 -4 10 -9z m699 -10 c0 -3 -4 -15 -9 -26 -8
-18 -9 -18 -10 5 l-1 25 -12 -28 -12 -29 -28 22 c-34 27 -34 38 1 42 33 4 72
-2 71 -11z m661 9 c0 -5 -7 -10 -15 -10 -8 0 -15 5 -15 10 0 6 7 10 15 10 8 0
15 -4 15 -10z m425 -12 c5 -4 0 -6 -13 -5 -22 1 -27 8 -15 20 3 4 9 4 12 0 3
-4 10 -11 16 -15z m-1945 2 c0 -5 -3 -10 -7 -11 -5 0 -18 -2 -30 -5 -13 -2
-23 0 -23 5 0 8 10 12 53 20 4 0 7 -3 7 -9z m90 0 c0 -5 -4 -10 -10 -10 -5 0
-10 5 -10 10 0 6 5 10 10 10 6 0 10 -4 10 -10z m160 0 c0 -5 -4 -10 -10 -10
-5 0 -10 5 -10 10 0 6 5 10 10 10 6 0 10 -4 10 -10z m440 0 c21 -13 10 -19
-23 -13 -21 4 -25 8 -15 14 16 11 20 11 38 -1z m1615 0 c3 -6 0 -13 -8 -16 -9
-3 -13 -13 -10 -25 3 -10 10 -16 16 -12 6 3 7 1 3 -5 -5 -9 -13 -9 -27 -2 -11
6 -17 16 -13 21 4 8 0 8 -12 1 -11 -5 -25 -7 -33 -4 -9 3 -11 0 -6 -8 6 -10 4
-11 -11 -5 -10 5 -32 8 -49 7 -20 -1 -25 1 -17 7 20 12 -12 23 -44 15 -15 -4
-24 -2 -24 6 0 6 4 9 10 5 5 -3 18 0 29 7 17 10 26 10 51 -6 17 -10 43 -19 58
-21 24 -2 25 -2 8 11 -11 7 -23 11 -27 8 -5 -3 -14 -2 -20 2 -20 12 13 24 68
24 28 0 55 -5 58 -10z m-2445 -11 c0 -5 -3 -10 -7 -10 -54 -8 -64 -7 -54 5 13
15 61 19 61 5z m70 2 c0 -5 -13 -11 -30 -13 -30 -5 -41 6 -17 15 20 9 47 8 47
-2z m2546 -46 c13 -31 24 -60 24 -65 0 -11 -79 -3 -93 9 -7 7 30 111 40 111 2
0 15 -25 29 -55z m-2106 37 c0 -4 -10 -13 -21 -21 -18 -11 -23 -11 -30 1 -15
22 -10 28 21 28 17 0 30 -3 30 -8z m408 -57 c-6 -6 -115 12 -134 23 -12 7 -8
9 15 10 49 3 60 5 59 11 -2 23 6 21 33 -7 18 -18 30 -35 27 -37z m148 30 c-7
-18 -26 -20 -26 -2 0 18 24 41 28 27 2 -6 1 -17 -2 -25z m952 20 c11 -11 -14
-25 -36 -21 -15 2 -48 8 -74 11 -27 3 -48 11 -48 17 0 7 24 9 77 4 43 -4 79
-9 81 -11z m-1650 -28 c7 -18 12 -36 12 -40 0 -9 -47 -9 -88 -1 -24 5 -29 10
-25 28 10 43 13 46 51 46 34 0 39 -3 50 -33z m48 19 c3 -8 12 -12 20 -9 17 6
18 -9 2 -25 -9 -9 -15 -6 -24 16 -9 18 -13 21 -13 10 -1 -15 -21 -28 -21 -14
0 2 -3 11 -6 20 -4 12 0 16 15 16 12 0 24 -6 27 -14z m169 4 c10 0 10 -10 3
-47 -13 -59 -15 -61 -33 -37 -17 22 -20 48 -4 38 8 -5 8 -1 0 14 -16 29 -14
45 5 38 9 -3 21 -6 29 -6z m1505 -16 c0 -8 -7 -14 -15 -14 -15 0 -21 21 -9 33
10 9 24 -2 24 -19z m150 13 c26 1 30 -1 15 -6 -17 -7 -17 -8 7 -14 15 -4 32
-5 40 -4 7 2 9 2 4 -1 -4 -2 -2 -8 5 -13 26 -15 3 -18 -66 -8 -66 10 -105 30
-105 52 0 6 13 6 33 2 17 -5 48 -8 67 -8z m-2110 -18 c-11 -19 -17 -20 -88
-14 -101 10 -112 19 -32 26 132 12 132 12 120 -12z m96 5 c-3 -9 -6 -20 -6
-25 0 -5 -11 -9 -25 -9 -28 0 -29 3 -15 31 13 24 55 27 46 3z m21 -31 c-3 -10
-5 -4 -5 12 0 17 2 24 5 18 2 -7 2 -21 0 -30z m-467 18 c0 -10 -30 -24 -37
-17 -3 3 -2 9 2 15 8 13 35 15 35 2z m733 -11 c-3 -11 -9 -17 -14 -14 -14 8
-10 34 5 34 9 0 12 -7 9 -20z m1127 10 c0 -5 -4 -10 -10 -10 -5 0 -10 5 -10
10 0 6 5 10 10 10 6 0 10 -4 10 -10z m345 -8 c-3 -3 -11 0 -18 7 -9 10 -8 11
6 5 10 -3 15 -9 12 -12z m-1305 -23 c0 -10 -4 -19 -10 -19 -5 0 -6 7 -3 17 4
11 3 14 -5 9 -7 -4 -12 -1 -12 8 0 10 6 13 15 10 8 -4 15 -15 15 -25z m-712 9
c-6 -18 -28 -21 -28 -4 0 9 7 16 16 16 9 0 14 -5 12 -12z m39 -14 c-9 -9 -28
6 -21 18 4 6 10 6 17 -1 6 -6 8 -13 4 -17z m403 22 c0 -3 -4 -8 -10 -11 -5 -3
-10 -1 -10 4 0 6 5 11 10 11 6 0 10 -2 10 -4z m88 -41 c-3 -4 -23 -3 -43 1
l-38 7 24 18 c23 18 25 18 43 -1 11 -11 17 -22 14 -25z m1657 35 c3 -5 1 -10
-4 -10 -6 0 -11 5 -11 10 0 6 2 10 4 10 3 0 8 -4 11 -10z m235 0 c13 -8 13
-10 -2 -10 -9 0 -20 5 -23 10 -8 13 5 13 25 0z m-2661 -6 c18 -4 31 -13 31
-21 0 -11 -6 -13 -22 -8 -13 3 -33 9 -45 12 -25 6 -32 23 -9 23 7 0 28 -3 45
-6z m331 -3 c0 -14 -18 -23 -30 -16 -6 4 -8 11 -5 16 8 12 35 12 35 0z m40 -6
c0 -8 -4 -15 -10 -15 -5 0 -10 7 -10 15 0 8 5 15 10 15 6 0 10 -7 10 -15z
m530 3 c0 -7 -5 -20 -10 -28 -9 -13 -11 -13 -19 -1 -6 9 -5 19 2 27 15 17 27
18 27 2z m170 8 c0 -3 -4 -8 -10 -11 -5 -3 -10 -1 -10 4 0 6 5 11 10 11 6 0
10 -2 10 -4z m84 -5 c4 -5 17 -8 31 -6 27 3 34 -9 10 -19 -8 -3 -15 -1 -15 4
0 6 -3 9 -7 9 -24 -4 -53 2 -53 11 0 13 27 13 34 1z m916 3 c0 -4 -5 -24 -12
-45 -12 -42 -33 -54 -26 -15 4 17 1 23 -9 19 -21 -8 -15 13 10 30 24 17 37 21
37 11z m-1600 -25 c0 -5 -7 -9 -15 -9 -15 0 -20 12 -9 23 8 8 24 -1 24 -14z
m1530 -26 c0 -20 -18 -16 -30 7 -15 28 -1 49 17 25 7 -11 13 -25 13 -32z m119
15 c6 -17 9 -33 6 -36 -2 -3 0 -13 6 -23 11 -22 11 -22 -30 -8 -27 10 -31 15
-26 33 4 11 9 31 12 44 7 31 19 28 32 -10z m421 22 c-19 -13 -30 -13 -30 0 0
6 10 10 23 10 18 0 19 -2 7 -10z m-2477 -6 c8 -8 -3 -34 -14 -34 -5 0 -9 9 -9
20 0 19 11 26 23 14z m1000 -19 c20 -11 37 -22 37 -26 0 -7 -45 -1 -70 8 -8 4
-18 5 -22 5 -10 -2 -11 22 -2 31 8 7 5 8 57 -18z m251 6 c-3 -36 -5 -41 -12
-41 -5 0 -18 13 -30 29 l-21 29 32 -3 c18 -1 32 -8 31 -14z m636 -2 c0 -5 -9
-9 -20 -9 -22 0 -27 16 -7 23 15 5 27 -1 27 -14z m297 -19 c-13 -21 -27 -26
-27 -10 0 6 5 10 12 10 9 0 9 3 0 12 -10 10 -15 10 -22 -2 -5 -8 -10 -10 -10
-4 0 21 22 33 41 23 16 -8 17 -13 6 -29z m139 21 c0 -11 -4 -18 -7 -15 -4 2
-10 0 -13 -5 -3 -5 6 -12 20 -15 17 -5 24 -12 20 -21 -3 -8 -2 -15 3 -15 5 0
13 -18 19 -40 5 -22 8 -40 5 -40 -7 0 -64 40 -86 61 -18 16 -18 19 -2 50 16
30 35 59 39 59 1 0 2 -9 2 -19z m79 -24 c1 -21 -2 -24 -17 -16 -10 5 -18 14
-18 19 0 4 -3 16 -6 24 -5 13 -2 15 17 7 17 -6 24 -16 24 -34z m136 34 c-8 -5
-20 -7 -28 -4 -21 8 -15 13 15 13 20 0 23 -3 13 -9z m-2521 -79 l0 -24 -28 19
c-86 57 -102 69 -102 75 0 3 29 -5 65 -20 55 -21 65 -29 65 -50z m7 46 c-16
-10 -21 -2 -13 19 6 15 9 15 16 3 6 -9 5 -17 -3 -22z m261 17 c2 -2 -4 -17
-13 -35 -12 -23 -21 -30 -33 -25 -9 4 -36 14 -59 22 -31 11 -43 20 -43 35 0
18 5 19 73 12 39 -3 73 -8 75 -9z m202 5 c0 -5 -4 -10 -10 -10 -5 0 -10 5 -10
10 0 6 5 10 10 10 6 0 10 -4 10 -10z m40 2 c0 -13 -12 -22 -22 -16 -10 6 -1
24 13 24 5 0 9 -4 9 -8z m30 -2 c0 -5 -5 -10 -11 -10 -5 0 -7 5 -4 10 3 6 8
10 11 10 2 0 4 -4 4 -10z m607 -5 c0 -8 -4 -15 -9 -15 -10 0 -11 14 -1 23 9
10 10 9 10 -8z m-1497 -2 c0 -4 -10 -22 -22 -40 -17 -24 -29 -32 -43 -29 -11
2 -55 8 -98 11 -42 4 -79 11 -82 15 -2 4 46 16 108 28 132 24 137 24 137 15z
m995 -23 c-5 -8 -11 -8 -21 1 -12 10 -12 14 -2 20 16 10 33 -5 23 -21z m435
20 c0 -5 -5 -10 -11 -10 -5 0 -7 5 -4 10 3 6 8 10 11 10 2 0 4 -4 4 -10z m220
0 c0 -5 -2 -10 -4 -10 -3 0 -8 5 -11 10 -3 6 -1 10 4 10 6 0 11 -4 11 -10z
m1253 0 c27 0 34 -14 18 -39 -8 -12 -19 -11 -75 4 -36 10 -66 21 -66 26 0 13
24 19 60 14 19 -3 47 -5 63 -5z m-2670 -59 c42 -40 47 -53 15 -47 -13 3 -48 8
-78 11 l-55 6 3 39 c3 31 9 40 25 42 25 4 38 -3 90 -51z m518 43 c11 -6 -4
-69 -19 -80 -12 -9 -26 -8 -59 3 l-43 15 22 39 c20 37 24 39 57 33 20 -4 39
-8 42 -10z m1734 -37 c17 -29 17 -30 0 -23 -14 5 -15 3 -7 -6 7 -9 5 -17 -6
-28 -14 -13 -15 -12 -10 2 4 9 0 24 -8 35 -13 17 -14 17 -8 -2 6 -19 6 -19
-11 -3 -11 10 -15 23 -11 34 6 16 8 15 29 -2 l22 -19 -22 26 c-13 14 -23 28
-23 32 0 15 38 -18 55 -46z m109 36 c-2 -28 -4 -33 -14 -33 -6 0 -15 10 -20
23 -5 12 -9 16 -9 8 -1 -8 -4 -12 -7 -8 -11 11 5 24 28 23 13 0 23 -7 22 -13z
m-2564 -3 c0 -5 -4 -10 -10 -10 -5 0 -10 5 -10 10 0 6 5 10 10 10 6 0 10 -4
10 -10z m1055 1 c3 -5 1 -12 -5 -16 -5 -3 -10 1 -10 9 0 18 6 21 15 7z m455
-1 c0 -5 -4 -10 -9 -10 -6 0 -13 5 -16 10 -3 6 1 10 9 10 9 0 16 -4 16 -10z
m1435 4 c13 -5 11 -9 -11 -20 -31 -17 -42 -11 -24 11 14 17 13 17 35 9z
m-2145 -13 c0 -5 -7 -11 -15 -15 -9 -3 -15 0 -15 9 0 8 7 15 15 15 8 0 15 -4
15 -9z m1945 -2 c11 -17 -1 -21 -15 -4 -8 9 -8 15 -2 15 6 0 14 -5 17 -11z
m508 4 c-7 -2 -19 -2 -25 0 -7 3 -2 5 12 5 14 0 19 -2 13 -5z m-3888 -13 c3
-6 -1 -7 -9 -4 -18 7 -21 14 -7 14 6 0 13 -4 16 -10z m1081 -17 c-10 -10 -19
5 -10 18 6 11 8 11 12 0 2 -7 1 -15 -2 -18z m164 23 c0 -3 -4 -8 -10 -11 -5
-3 -10 -1 -10 4 0 6 5 11 10 11 6 0 10 -2 10 -4z m236 -14 c-4 -13 -1 -19 9
-19 8 0 17 9 21 19 8 26 42 22 56 -7 9 -21 8 -29 -9 -48 -31 -34 -35 -46 -17
-43 9 1 23 11 31 22 12 16 15 17 23 4 13 -20 12 -30 -2 -31 -47 -5 -128 -8
-128 -5 0 2 6 19 14 38 13 30 13 35 1 35 -8 0 -17 -7 -19 -14 -3 -8 -1 -11 4
-8 6 3 10 1 10 -4 0 -6 -7 -11 -16 -11 -11 0 -14 -6 -9 -22 3 -13 3 -18 -2
-13 -4 6 -14 10 -20 11 -7 1 -17 2 -23 3 -5 0 -10 14 -10 31 0 23 8 35 38 54
45 30 55 32 48 8z m1374 8 c0 -5 -2 -10 -4 -10 -3 0 -8 5 -11 10 -3 6 -1 10 4
10 6 0 11 -4 11 -10z m1160 -2 c0 -4 -12 -8 -26 -8 -14 0 -23 4 -19 9 6 11 45
10 45 -1z m-3390 -8 c0 -5 -4 -10 -10 -10 -5 0 -10 5 -10 10 0 6 5 10 10 10 6
0 10 -4 10 -10z m498 -13 c2 -10 -3 -17 -12 -17 -10 0 -16 9 -16 21 0 24 23
21 28 -4z m485 17 c3 -3 3 -12 0 -20 -4 -11 -7 -11 -19 1 -8 7 -14 16 -14 19
0 8 25 8 33 0z m342 -4 c3 -5 1 -10 -4 -10 -6 0 -11 5 -11 10 0 6 2 10 4 10 3
0 8 -4 11 -10z m866 0 c5 0 9 -4 9 -10 0 -16 -37 -11 -44 6 -5 12 -2 15 10 10
8 -3 20 -6 25 -6z m561 -6 c14 -4 38 -19 53 -34 l26 -28 -35 -22 c-20 -12 -36
-25 -36 -30 0 -4 -8 -7 -17 -5 -10 2 -21 4 -24 4 -3 1 -11 22 -17 49 -6 26
-14 56 -18 66 -6 17 -4 18 17 12 13 -3 36 -9 51 -12z m109 -4 c19 0 29 -5 29
-15 0 -8 -4 -15 -10 -15 -5 0 -10 4 -10 9 0 5 -14 11 -31 15 -20 4 -28 10 -23
18 6 9 9 9 12 0 2 -7 17 -12 33 -12z m314 -25 c30 -13 63 -50 53 -61 -2 -2
-33 5 -69 16 -72 22 -79 23 -79 12 0 -4 27 -14 61 -21 33 -8 57 -17 52 -22
-10 -10 -63 0 -63 12 0 5 -10 9 -22 9 -30 0 -54 15 -39 24 8 5 8 13 0 27 -6
11 -8 27 -5 35 5 13 10 12 41 -1 19 -8 51 -22 70 -30z m245 35 c0 -5 -4 -10
-10 -10 -5 0 -10 5 -10 10 0 6 5 10 10 10 6 0 10 -4 10 -10z m-3789 -33 c-8
-8 -11 -7 -11 4 0 20 13 34 18 19 3 -7 -1 -17 -7 -23z m50 16 c0 -11 3 -13 6
-5 5 13 23 17 23 5 0 -5 -4 -14 -9 -22 -8 -12 -12 -12 -25 -2 -18 15 -21 41
-6 41 6 0 10 -8 11 -17z m1333 -20 c-9 -65 -14 -71 -30 -41 -13 25 -13 31 2
53 23 36 34 31 28 -12z m68 13 c-3 -17 -1 -18 11 -8 12 10 16 10 20 -1 3 -8
-3 -14 -17 -15 -11 0 -29 -11 -39 -23 -22 -28 -25 -24 -19 29 4 37 7 43 26 40
15 -2 20 -9 18 -22z m2178 14 c0 -5 -2 -10 -4 -10 -3 0 -8 5 -11 10 -3 6 -1
10 4 10 6 0 11 -4 11 -10z m40 0 c0 -5 -7 -10 -15 -10 -8 0 -15 5 -15 10 0 6
7 10 15 10 8 0 15 -4 15 -10z m-3690 -10 c0 -5 -4 -10 -10 -10 -5 0 -10 5 -10
10 0 6 5 10 10 10 6 0 10 -4 10 -10z m180 -16 c0 -22 -3 -25 -22 -20 -13 3
-26 6 -30 6 -5 0 -8 9 -8 20 0 16 7 20 30 20 26 0 30 -4 30 -26z m748 9 c-4
-22 -22 -20 -26 1 -2 10 3 16 13 16 10 0 15 -7 13 -17z m2787 7 c3 -5 1 -10
-4 -10 -6 0 -11 5 -11 10 0 6 2 10 4 10 3 0 8 -4 11 -10z m-3453 -25 c-5 -27
-7 -28 -37 -21 -16 4 -25 13 -25 27 0 17 5 20 33 17 26 -2 31 -7 29 -23z
m2468 15 c0 -5 -7 -7 -15 -4 -8 4 -15 8 -15 10 0 2 7 4 15 4 8 0 15 -4 15 -10z
m1020 0 c0 -5 -4 -10 -10 -10 -5 0 -10 5 -10 10 0 6 5 10 10 10 6 0 10 -4 10
-10z m-3675 -30 c105 -12 195 -24 202 -25 12 -4 -68 -158 -88 -170 -11 -8
-349 207 -342 218 2 4 12 6 21 3 10 -2 103 -14 207 -26z m245 21 c0 -12 -29
-35 -36 -28 -11 10 5 37 21 37 8 0 15 -4 15 -9z m646 -18 c-10 -10 -19 5 -10
18 6 11 8 11 12 0 2 -7 1 -15 -2 -18z m704 17 c0 -5 -5 -10 -11 -10 -5 0 -7 5
-4 10 3 6 8 10 11 10 2 0 4 -4 4 -10z m928 -14 c3 -13 -1 -17 -14 -14 -11 2
-20 11 -22 22 -3 13 1 17 14 14 11 -2 20 -11 22 -22z m652 3 c0 -6 -4 -7 -10
-4 -5 3 -10 11 -10 16 0 6 5 7 10 4 6 -3 10 -11 10 -16z m-2575 1 c3 -5 2 -10
-4 -10 -5 0 -13 5 -16 10 -3 6 -2 10 4 10 5 0 13 -4 16 -10z m212 -2 c54 -20
37 -45 -23 -34 -25 5 -34 12 -34 26 0 23 11 25 57 8z m123 -8 c0 -21 -15 -27
-25 -10 -7 12 2 30 16 30 5 0 9 -9 9 -20z m1653 -5 c-5 -13 -23 -22 -23 -11 0
15 14 35 21 31 4 -3 6 -12 2 -20z m272 16 c7 -12 -12 -24 -25 -16 -11 7 -4 25
10 25 5 0 11 -4 15 -9z m735 -6 c11 -13 10 -14 -4 -9 -9 3 -16 10 -16 15 0 13
6 11 20 -6z m170 5 c0 -5 -4 -10 -10 -10 -5 0 -10 5 -10 10 0 6 5 10 10 10 6
0 10 -4 10 -10z m-3490 -9 c0 -6 -4 -13 -10 -16 -5 -3 -10 1 -10 9 0 9 5 16
10 16 6 0 10 -4 10 -9z m60 -7 c0 -8 -4 -12 -10 -9 -5 3 -10 1 -10 -6 0 -10
-3 -10 -11 -2 -6 6 -8 16 -5 22 11 17 36 13 36 -5z m101 3 c-1 -4 -1 -14 -1
-22 0 -8 -4 -15 -10 -15 -5 0 -10 12 -10 26 0 14 5 24 11 22 6 -2 10 -7 10
-11z m819 -8 c-7 -11 -14 -18 -17 -15 -3 3 0 12 7 21 18 21 23 19 10 -6z
m1424 6 c44 -19 38 -39 -7 -29 -30 6 -46 19 -47 37 0 11 13 9 54 -8z m274 -21
c20 -19 28 -31 17 -25 -33 18 -81 61 -67 61 7 0 29 -16 50 -36z m-3138 -90
c83 -59 149 -109 146 -111 -4 -4 -217 19 -302 32 -31 5 -32 6 -39 79 -7 79 5
122 30 112 8 -3 82 -53 165 -112z m-60 101 c0 -8 -4 -15 -10 -15 -5 0 -10 7
-10 15 0 8 5 15 10 15 6 0 10 -7 10 -15z m767 0 c1 -5 -1 -16 -6 -24 -14 -21
-61 -6 -61 20 0 17 5 20 32 17 17 -2 33 -7 35 -13z m451 3 c-6 -18 -28 -21
-28 -4 0 9 7 16 16 16 9 0 14 -5 12 -12z m2372 -18 c4 0 11 -12 14 -27 4 -16
9 -36 12 -45 6 -19 -19 -24 -63 -12 -29 8 -29 16 -1 73 15 31 24 40 26 29 2
-10 7 -18 12 -18z m285 20 c3 -5 1 -10 -4 -10 -6 0 -11 5 -11 10 0 6 2 10 4
10 3 0 8 -4 11 -10z m-3028 -16 c8 -23 -12 -38 -41 -30 -39 10 -36 46 4 46 19
0 33 -6 37 -16z m2023 6 c0 -5 -4 -10 -10 -10 -5 0 -10 5 -10 10 0 6 5 10 10
10 6 0 10 -4 10 -10z m270 0 c0 -5 -2 -10 -4 -10 -3 0 -8 5 -11 10 -3 6 -1 10
4 10 6 0 11 -4 11 -10z m370 1 c0 -5 -5 -22 -10 -37 -10 -25 -12 -26 -26 -12
-21 20 -10 58 17 58 10 0 19 -4 19 -9z m345 -9 c17 -10 52 -26 78 -36 27 -10
46 -20 43 -23 -8 -8 -149 36 -158 49 -20 32 -6 36 37 10z m-3825 -7 c0 -8 -4
-15 -10 -15 -5 0 -10 7 -10 15 0 8 5 15 10 15 6 0 10 -7 10 -15z m470 -5 c0
-5 -5 -10 -11 -10 -5 0 -7 -4 -4 -10 3 -5 2 -10 -3 -10 -5 0 -17 -20 -26 -45
-17 -44 -32 -62 -43 -52 -5 6 24 63 44 84 6 7 15 22 18 33 7 21 25 28 25 10z
m750 0 c0 -5 -4 -10 -10 -10 -5 0 -10 5 -10 10 0 6 5 10 10 10 6 0 10 -4 10
-10z m2695 0 c3 -5 1 -10 -4 -10 -6 0 -11 5 -11 10 0 6 2 10 4 10 3 0 8 -4 11
-10z m-4205 -9 c0 -12 -20 -25 -27 -18 -7 7 6 27 18 27 5 0 9 -4 9 -9z m320
-6 c0 -8 -4 -15 -10 -15 -5 0 -10 7 -10 15 0 8 5 15 10 15 6 0 10 -7 10 -15z
m520 -74 l0 -88 -46 -7 c-64 -8 -116 -8 -112 2 2 4 25 47 52 95 44 77 53 87
78 87 l28 0 0 -89z m480 80 c0 -5 -7 -11 -15 -15 -15 -5 -20 5 -8 17 9 10 23
9 23 -2z m2100 -1 c12 -8 11 -10 -7 -10 -13 0 -23 5 -23 10 0 13 11 13 30 0z
m531 -36 c11 -19 23 -34 26 -34 3 0 -2 12 -12 26 -9 14 -15 27 -13 30 11 10
120 -31 129 -48 6 -11 9 -22 6 -24 -7 -7 -153 7 -166 16 -7 3 -14 23 -18 44
-5 31 -3 35 10 30 9 -3 26 -21 38 -40z m299 25 c0 -4 -7 -6 -15 -3 -8 4 -15
10 -15 15 0 4 7 6 15 3 8 -4 15 -10 15 -15z m-3186 -9 c44 -6 81 -12 83 -14 2
-2 0 -11 -3 -20 -5 -13 -9 -14 -14 -6 -5 8 -10 1 -15 -19 -3 -17 -10 -33 -15
-36 -9 -6 -158 -35 -177 -35 -14 0 -19 131 -6 143 4 4 20 5 37 2 17 -3 67 -9
110 -15z m346 10 c0 -5 -4 -10 -9 -10 -6 0 -13 5 -16 10 -3 6 1 10 9 10 9 0
16 -4 16 -10z m2320 -32 c0 -5 -7 -8 -15 -8 -8 0 -15 4 -15 9 0 4 -14 7 -31 5
-19 -2 -28 0 -23 7 3 6 12 8 20 5 8 -3 14 1 14 10 0 13 4 12 25 -3 13 -10 25
-21 25 -25z m327 25 c3 -7 -3 -9 -16 -6 -12 3 -21 10 -21 15 0 13 32 6 37 -9z
m-3707 -8 c0 -8 -4 -15 -10 -15 -5 0 -10 7 -10 15 0 8 5 15 10 15 6 0 10 -7
10 -15z m1128 -3 c-4 -20 -27 -26 -48 -12 -18 12 -3 25 30 27 15 1 20 -3 18
-15z m-1428 -59 c0 -38 -3 -43 -22 -42 -13 1 -33 4 -46 7 l-22 7 27 40 c46 68
63 65 63 -12z m1460 52 c0 -8 -4 -15 -10 -15 -5 0 -10 7 -10 15 0 8 5 15 10
15 6 0 10 -7 10 -15z m2615 5 c-3 -5 -10 -10 -16 -10 -5 0 -9 5 -9 10 0 6 7
10 16 10 8 0 12 -4 9 -10z m-4155 -15 c0 -8 -4 -15 -10 -15 -5 0 -10 7 -10 15
0 8 5 15 10 15 6 0 10 -7 10 -15z m410 -6 c0 -11 -4 -17 -10 -14 -5 3 -10 13
-10 21 0 8 5 14 10 14 6 0 10 -9 10 -21z m3850 -9 c0 -4 11 -6 25 -5 14 2 23
-1 20 -6 -4 -5 -16 -7 -28 -5 -12 3 -27 5 -33 5 -7 1 -14 7 -17 15 -4 10 0 12
14 9 10 -3 19 -9 19 -13z m-3817 4 c9 -9 -4 -35 -14 -28 -5 3 -9 12 -9 20 0
14 12 19 23 8z m1497 -14 c0 -5 -5 -10 -11 -10 -5 0 -7 5 -4 10 3 6 8 10 11
10 2 0 4 -4 4 -10z m1248 4 c14 -4 21 -12 18 -20 -3 -8 -1 -14 5 -14 19 0 41
-68 29 -91 -11 -19 -12 -19 -58 6 -70 39 -80 48 -77 75 1 14 3 31 4 38 1 13
41 16 79 6z m56 0 c10 -4 16 -18 16 -35 0 -32 -15 -39 -23 -11 -2 9 -8 25 -12
35 -8 18 -5 20 19 11z m957 -5 c19 -6 48 -17 64 -25 l30 -14 -36 0 c-59 0 -99
11 -110 31 -12 23 1 25 52 8z m-3723 -23 c3 -12 -1 -17 -10 -14 -7 3 -15 13
-16 22 -3 12 1 17 10 14 7 -3 15 -13 16 -22z m1822 13 c0 -8 4 -8 15 1 20 17
58 3 50 -18 -4 -10 -12 -42 -18 -72 -6 -30 -11 -56 -11 -56 -1 -1 -12 -5 -24
-9 -22 -6 -23 -5 -17 17 5 17 4 19 -4 8 -8 -12 -13 -12 -23 -2 -15 15 0 29 43
38 22 5 38 34 18 34 -10 0 -69 53 -69 62 0 5 9 8 20 8 11 0 20 -5 20 -11z
m1044 -4 c3 -8 -5 -39 -18 -68 l-24 -52 -1 36 c-1 40 16 99 29 99 4 0 10 -7
14 -15z m-1073 -21 c30 -29 29 -58 -3 -75 -15 -8 -24 -7 -39 7 -11 10 -17 24
-14 31 2 8 1 12 -4 9 -4 -3 -17 1 -27 9 -19 13 -19 14 1 29 29 22 55 19 86
-10z m222 -6 c17 -20 16 -21 -15 -45 -35 -26 -83 -53 -93 -53 -9 0 5 83 15 94
5 5 6 14 3 22 -8 21 69 6 90 -18z m955 2 c13 -17 18 -31 12 -35 -15 -9 -30 4
-23 20 5 14 0 16 -36 19 -24 2 -22 22 2 24 16 1 31 -8 45 -28z m72 10 c0 -4
-7 -11 -16 -14 -9 -4 -14 -9 -10 -13 3 -3 14 2 25 11 20 19 37 7 27 -19 -2 -7
0 -16 7 -19 7 -2 4 -5 -5 -5 -10 -1 -18 -7 -18 -13 -1 -19 -59 54 -60 73 0 12
7 15 25 11 14 -2 25 -8 25 -12z m-3010 -16 c0 -14 -12 -19 -23 -8 -9 9 4 35
14 28 5 -3 9 -12 9 -20z m1572 14 c5 -13 -32 -48 -50 -48 -6 0 -4 13 4 30 16
31 39 40 46 18z m38 1 c0 -5 5 -7 10 -4 6 3 10 1 10 -4 0 -15 -13 -14 -36 4
-17 13 -17 14 -1 15 9 0 17 -5 17 -11z m1534 -7 c6 -10 -4 -52 -13 -52 -11 0
-32 40 -26 50 8 12 32 13 39 2z m-3111 -21 c5 -22 -1 -33 -14 -25 -12 7 -12
44 0 44 5 0 11 -9 14 -19z m2847 -24 c0 -4 10 -5 23 -1 21 6 21 6 -3 -17 -14
-13 -37 -32 -50 -42 -33 -24 -3 -10 34 17 21 14 31 16 34 8 2 -7 8 -12 13 -12
6 0 7 5 3 12 -5 7 -3 8 5 4 8 -6 11 -2 9 10 -5 30 23 22 41 -12 9 -17 31 -48
49 -69 29 -36 42 -75 26 -75 -11 0 -33 34 -34 51 0 8 -11 26 -25 39 -14 13
-25 29 -25 36 0 13 -17 13 -38 0 -11 -6 -10 -13 6 -30 29 -32 42 -60 32 -76
-6 -10 -24 -7 -88 19 -91 37 -90 35 -58 130 17 50 20 53 32 36 8 -10 14 -23
14 -28z m287 7 c-3 -19 -8 -38 -11 -41 -11 -11 -19 6 -11 24 9 21 12 29 14 43
0 6 4 10 7 10 3 0 3 -16 1 -36z m63 22 c0 -8 -4 -18 -10 -21 -5 -3 -10 -13
-10 -21 0 -8 -7 -31 -16 -52 -14 -33 -16 -35 -26 -19 -16 29 18 127 43 127 10
0 19 -6 19 -14z m-3866 -5 c3 -5 -3 -20 -14 -32 l-19 -24 -1 26 c0 35 20 53
34 30z m1966 0 c0 -6 -4 -12 -10 -16 -5 -3 -7 -12 -4 -19 5 -13 -14 -26 -48
-32 -10 -2 -18 0 -18 5 0 4 -21 2 -47 -4 -27 -7 -49 -9 -51 -4 -2 5 -13 9 -25
9 -20 0 -20 0 3 25 24 26 54 33 65 15 5 -8 11 -7 20 0 28 24 115 39 115 21z
m2062 -35 c37 -32 43 -42 52 -86 3 -14 12 -50 20 -80 7 -30 16 -69 19 -85 l6
-31 -105 17 c-57 10 -107 20 -111 23 -5 2 -21 29 -37 59 l-30 54 24 54 c12 30
29 69 37 87 13 31 16 32 51 26 20 -4 54 -21 74 -38z m-3202 14 c-9 -17 -30
-28 -30 -16 0 16 15 36 26 36 12 0 12 -4 4 -20z m1434 -43 c32 -52 2 -75 -80
-62 -26 5 -31 9 -31 36 0 23 7 34 29 45 15 8 28 17 28 20 0 2 -9 0 -19 -6 -33
-17 -38 -11 -7 9 27 18 30 18 45 3 10 -10 25 -30 35 -45z m79 14 c26 -27 47
-52 47 -55 0 -3 -12 -6 -26 -6 -19 0 -25 4 -20 15 4 13 2 13 -14 5 -27 -14
-27 -14 -55 30 -31 49 -31 60 -2 60 15 0 40 -18 70 -49z m-2205 12 c-2 -23 -7
-28 -27 -25 -33 3 -35 6 -21 31 6 12 20 21 31 21 16 0 20 -5 17 -27z m559 -5
c-3 -7 -5 -2 -5 12 0 14 2 19 5 13 2 -7 2 -19 0 -25z m1415 7 c-2 -14 -8 -25
-13 -25 -10 0 -12 34 -2 43 13 14 20 6 15 -18z m1649 -28 c-13 -13 -17 -9 -25
28 l-6 30 20 -24 c14 -17 18 -27 11 -34z m299 43 c0 -5 -2 -10 -4 -10 -3 0 -8
5 -11 10 -3 6 -1 10 4 10 6 0 11 -4 11 -10z m-3842 -33 c2 -17 -1 -27 -10 -27
-25 0 -37 16 -31 38 8 32 37 24 41 -11z m3982 17 c36 -9 72 -16 82 -16 9 0 18
-7 21 -16 3 -9 24 -61 46 -115 39 -93 56 -159 30 -114 -5 9 -15 17 -21 17 -5
0 -66 48 -134 107 -92 79 -124 113 -124 130 0 28 11 29 100 7z m-3852 -9 c11
-10 -12 -45 -29 -45 -15 0 -19 7 -19 31 0 27 3 30 23 23 12 -3 24 -8 25 -9z
m2278 -24 c-20 -23 -22 -49 -2 -32 11 9 15 7 20 -11 12 -48 8 -58 -26 -58 -26
0 -39 8 -60 34 -16 19 -28 37 -28 40 0 3 24 19 53 36 52 29 74 25 43 -9z m670
8 c59 -33 66 -45 32 -58 -18 -6 -19 -9 -5 -14 23 -9 21 -23 -4 -48 l-22 -22
-14 34 c-8 19 -16 39 -17 44 -1 6 -10 27 -19 49 -25 58 -25 58 49 15z m430
-16 c5 -27 7 -52 6 -56 -1 -4 3 -18 9 -30 l11 -22 -20 21 c-11 11 -31 39 -46
62 -25 39 -25 41 -6 47 11 4 20 11 20 16 0 5 4 9 9 9 6 0 13 -21 17 -47z m664
37 c0 -5 -4 -10 -10 -10 -5 0 -10 5 -10 10 0 6 5 10 10 10 6 0 10 -4 10 -10z
m-3990 -35 c-11 -13 -10 -15 3 -10 8 4 18 2 22 -4 3 -7 -2 -11 -15 -11 -23 0
-35 22 -26 47 5 12 10 13 18 5 8 -8 8 -15 -2 -27z m1219 22 c16 -20 -32 -45
-53 -28 -8 7 -20 10 -25 7 -5 -4 -13 -1 -17 5 -4 8 -3 9 4 5 7 -4 12 -3 12 3
0 5 12 12 28 14 15 2 30 5 33 6 4 0 12 -5 18 -12z m-1179 -13 c0 -8 -5 -12
-10 -9 -6 4 -8 11 -5 16 9 14 15 11 15 -7z m1590 6 c0 -5 -5 -10 -11 -10 -5 0
-7 5 -4 10 3 6 8 10 11 10 2 0 4 -4 4 -10z m-1520 -10 c0 -5 -4 -10 -9 -10 -6
0 -13 5 -16 10 -3 6 1 10 9 10 9 0 16 -4 16 -10z m67 -27 c-16 -16 -17 -16
-17 3 0 26 11 37 24 24 7 -7 5 -16 -7 -27z m933 22 c7 -9 19 -14 26 -11 16 6
25 -6 16 -20 -9 -13 -62 -49 -84 -57 -14 -5 -17 1 -16 43 0 47 3 52 39 59 4 0
12 -6 19 -14z m-984 -32 c-5 -12 -10 -13 -18 -5 -8 8 -8 15 3 28 15 18 25 4
15 -23z m94 21 c0 -8 -5 -12 -10 -9 -6 4 -8 11 -5 16 9 14 15 11 15 -7z m2590
0 c0 -8 -4 -12 -10 -9 -5 3 -10 10 -10 16 0 5 5 9 10 9 6 0 10 -7 10 -16z
m-3025 -13 c36 -6 40 -10 43 -38 3 -35 8 -33 -162 -63 -101 -17 -102 -17 -65
38 60 89 49 85 184 63z m300 10 c3 -5 1 -12 -5 -16 -5 -3 -10 1 -10 9 0 18 6
21 15 7z m3295 0 c0 -6 -4 -13 -10 -16 -5 -3 -10 1 -10 9 0 9 5 16 10 16 6 0
10 -4 10 -9z m-2160 -9 c0 -13 -12 -22 -22 -16 -10 6 -1 24 13 24 5 0 9 -4 9
-8z m387 2 c-3 -3 -12 -4 -19 -1 -8 3 -5 6 6 6 11 1 17 -2 13 -5z m523 -26 c0
-6 8 -17 17 -24 10 -7 15 -15 12 -19 -4 -3 -14 1 -22 10 -9 8 -20 15 -26 15
-12 0 -15 23 -5 33 9 8 24 -1 24 -15z m1275 -1 c4 -12 1 -36 -5 -52 -10 -27
-12 -28 -22 -12 -11 21 -2 87 12 87 5 0 12 -10 15 -23z m-3392 -7 c5 -4 -15
-11 -43 -15 -39 -5 -55 -4 -61 6 -4 7 -6 16 -3 20 5 8 96 -1 107 -11z m810 8
c-6 -7 -21 -47 -33 -88 -12 -41 -26 -79 -30 -85 -5 -5 -10 -21 -12 -35 -2 -21
-8 -25 -38 -25 l-35 0 0 110 0 110 50 11 c71 17 110 17 98 2z m1160 -4 c38 -9
35 -28 -4 -20 -17 3 -37 6 -44 6 -7 0 -16 7 -19 16 -5 13 -2 15 16 10 13 -4
35 -9 51 -12z m846 -15 c6 -17 8 -35 5 -41 -3 -5 0 -15 6 -23 7 -9 8 -15 2
-15 -10 0 -27 36 -38 83 -9 38 11 35 25 -4z m-1336 10 c33 -9 36 -12 26 -30
-6 -12 -13 -18 -16 -15 -3 3 -13 -5 -23 -17 -16 -19 -20 -20 -43 -8 -32 17
-53 61 -35 72 18 12 46 11 91 -2z m407 1 c0 -5 -4 -10 -10 -10 -5 0 -10 5 -10
10 0 6 5 10 10 10 6 0 10 -4 10 -10z m-740 -10 c0 -13 -28 -25 -38 -16 -3 4 0
11 8 16 20 13 30 12 30 0z m2688 -83 c60 -51 91 -85 88 -94 -3 -8 -1 -11 4 -8
6 4 16 0 24 -8 12 -12 10 -14 -15 -14 -16 0 -29 3 -29 6 0 3 -21 6 -48 6 -83
1 -100 10 -112 58 -5 23 -16 63 -24 89 -23 78 -18 77 112 -35z m-2678 44 c-38
-25 -102 -52 -98 -41 5 17 113 77 117 66 2 -5 -6 -17 -19 -25z m414 27 c-5 -8
-2 -9 11 -5 14 6 16 3 11 -15 -3 -13 -6 -35 -6 -50 0 -18 -5 -28 -15 -28 -8 0
-15 -8 -15 -17 0 -16 2 -16 11 -3 8 11 9 4 4 -29 -7 -55 -15 -68 -27 -47 -6
11 -4 21 8 34 16 16 16 17 1 20 -15 3 -16 12 -12 55 4 29 10 56 15 61 5 5 6
15 3 22 -3 8 0 14 7 14 6 0 8 -5 4 -12z m1418 -29 c-5 -20 -16 -35 -26 -37
-15 -3 -17 1 -11 20 8 25 36 61 42 54 2 -2 0 -19 -5 -37z m-2402 -95 l0 -125
-42 3 -43 3 -22 95 -21 95 26 22 c25 21 45 29 85 32 15 1 17 -11 17 -125z
m1211 110 c41 -3 81 -6 89 -6 19 -1 40 -17 40 -31 0 -6 -27 -8 -78 -3 -66 5
-79 4 -79 -9 0 -8 9 -15 19 -15 10 0 18 4 18 10 0 5 7 7 15 4 8 -4 12 -10 9
-15 -3 -5 2 -9 10 -9 9 0 16 6 16 13 0 8 4 7 10 -3 6 -10 10 -11 10 -2 0 14
36 16 45 2 3 -5 0 -11 -7 -11 -7 -1 0 -4 16 -8 33 -7 33 -27 1 -24 -30 4 -96
9 -133 11 -21 1 -35 8 -39 20 -4 9 -11 20 -17 24 -6 4 -2 14 10 25 11 10 15
15 10 11 -14 -11 -54 -10 -61 2 -8 12 3 32 14 25 5 -2 41 -7 82 -11z m1320
-10 c77 -31 84 -37 64 -54 -8 -7 -15 -19 -15 -26 0 -9 -12 -14 -32 -14 -29 0
-36 6 -60 49 -25 44 -34 71 -25 71 2 0 32 -12 68 -26z m-2042 -15 c-9 -5 -15
-4 -18 2 -2 6 3 15 10 20 9 5 15 4 18 -2 2 -6 -3 -15 -10 -20z m290 -3 c18
-19 30 -39 26 -45 -3 -6 1 -14 10 -17 9 -4 14 -13 11 -21 -3 -8 -2 -11 4 -8 5
3 25 -9 44 -26 27 -23 36 -39 36 -62 0 -30 0 -30 -20 -12 -11 10 -20 26 -19
34 3 31 -1 34 -20 13 -22 -26 -33 -19 -21 13 9 24 3 26 -32 10 -10 -4 -15 -11
-12 -16 3 -6 1 -16 -5 -23 -9 -10 -8 -15 5 -20 12 -4 15 -2 10 9 -7 19 3 19
28 0 10 -7 15 -18 11 -24 -3 -6 2 -11 13 -11 10 0 27 -9 37 -20 18 -20 17 -20
-10 -20 -15 0 -34 8 -41 18 -13 16 -13 16 -14 0 0 -21 -45 -21 -61 -1 -13 15
-2 36 14 27 7 -4 6 -1 -2 7 -9 9 -15 10 -18 3 -21 -59 -63 -56 -63 5 0 22 4
42 9 45 5 3 7 22 4 41 -3 22 0 35 7 35 6 0 8 5 5 10 -3 6 -2 10 4 10 5 0 9
-17 7 -38 -3 -36 -2 -38 28 -36 47 3 48 3 40 15 -3 6 -1 15 6 19 19 12 3 29
-20 23 -26 -7 -70 32 -70 62 0 46 25 46 69 1z m623 -1 c0 -5 -7 -14 -16 -20
-12 -7 -19 -6 -26 5 -5 8 -10 19 -10 23 0 12 50 4 52 -8z m1024 -22 c-11 -11
-19 6 -11 24 8 17 8 17 12 0 3 -10 2 -21 -1 -24z m234 22 c14 -16 10 -18 -14
-9 -9 3 -16 10 -16 15 0 14 16 11 30 -6z m-1224 -32 c-11 -11 -19 6 -11 24 8
17 8 17 12 0 3 -10 2 -21 -1 -24z m1434 -5 c11 -23 20 -43 20 -44 0 -7 -69 22
-70 29 -1 18 13 57 21 57 5 0 18 -19 29 -42z m-1942 -21 c-6 -25 -15 -44 -20
-41 -9 6 -1 48 14 77 16 31 19 12 6 -36z m676 47 c18 -7 21 -30 6 -39 -11 -7
-48 14 -54 32 -6 14 21 17 48 7z m876 -41 c0 -7 -4 -13 -10 -13 -5 0 -10 6
-10 14 0 8 -3 23 -6 33 -5 16 -4 16 10 -1 9 -11 16 -26 16 -33z m-1915 -62
c-25 -50 -50 -91 -54 -91 -4 0 -19 12 -33 28 l-26 27 75 68 c42 37 78 66 80
63 2 -2 -17 -45 -42 -95z m1085 78 c0 -5 -4 -9 -10 -9 -5 0 -10 7 -10 16 0 8
5 12 10 9 6 -3 10 -10 10 -16z m-2000 3 c0 -5 -58 -30 -129 -56 -140 -51 -196
-57 -196 -22 0 17 13 23 85 37 47 10 117 24 155 32 39 8 73 15 78 16 4 0 7 -3
7 -7z m204 -64 c10 -40 21 -79 23 -85 4 -9 -9 -14 -43 -15 l-49 -2 47 -3 c36
-3 51 -9 59 -25 10 -18 8 -24 -12 -39 -25 -19 -349 -153 -355 -147 -2 2 25 53
59 113 46 81 69 111 87 116 18 5 20 7 6 8 -21 1 -18 12 18 70 26 41 84 80 121
81 17 0 24 -12 39 -72z m786 65 c-1 -10 -26 -43 -33 -43 -3 0 0 11 6 25 11 23
27 34 27 18z m26 -9 c-3 -9 -6 -33 -6 -55 0 -29 -5 -41 -17 -46 -10 -3 -26
-13 -35 -21 -15 -13 -19 -12 -35 4 -17 17 -17 18 0 11 14 -5 24 6 49 58 18 36
36 65 41 65 5 0 6 -7 3 -16z m484 -5 c0 -5 -4 -9 -10 -9 -5 0 -10 7 -10 16 0
8 5 12 10 9 6 -3 10 -10 10 -16z m395 -21 c36 -37 37 -40 15 -34 -14 4 -39 7
-57 7 -37 -2 -51 13 -26 28 10 6 14 11 10 11 -4 0 -2 7 5 15 7 8 13 14 13 15
0 0 18 -19 40 -42z m1131 27 c18 -14 18 -14 -11 -15 l-30 -1 25 -14 25 -14
-33 -1 c-29 0 -32 3 -27 20 4 12 2 20 -5 20 -6 0 -8 5 -5 10 9 15 38 12 61 -5z
m-2176 -4 c0 -10 -24 -21 -43 -21 -7 0 -3 7 7 15 22 17 36 19 36 6z m620 -1
c0 -5 -4 -10 -10 -10 -5 0 -10 5 -10 10 0 6 5 10 10 10 6 0 10 -4 10 -10z
m280 6 c0 -3 -4 -8 -10 -11 -5 -3 -10 -1 -10 4 0 6 5 11 10 11 6 0 10 -2 10
-4z m980 -6 c0 -5 -7 -10 -15 -10 -8 0 -15 5 -15 10 0 6 7 10 15 10 8 0 15 -4
15 -10z m55 -10 c3 -5 -3 -10 -14 -10 -12 0 -21 5 -21 10 0 6 6 10 14 10 8 0
18 -4 21 -10z m-1395 -10 c0 -5 -5 -10 -11 -10 -5 0 -7 5 -4 10 3 6 8 10 11
10 2 0 4 -4 4 -10z m103 -28 c3 -10 19 -52 35 -94 30 -79 31 -88 2 -88 -19 0
-100 73 -100 90 0 7 -8 10 -20 7 -23 -6 -24 -2 -9 44 20 61 78 86 92 41z m92
-21 c39 -35 39 -35 10 -3 l-29 33 73 -6 c41 -3 77 -7 80 -10 7 -7 -130 -135
-144 -135 -10 0 -52 87 -49 100 1 3 -5 14 -12 25 -19 27 -18 34 9 33 12 -1 40
-17 62 -37z m-625 22 c-1 -16 -30 -46 -37 -38 -5 4 -2 10 5 12 6 3 12 11 12
19 0 8 5 14 10 14 6 0 10 -3 10 -7z m2280 -13 c13 -9 13 -10 0 -9 -8 1 -26 5
-40 9 l-25 8 25 1 c14 0 32 -4 40 -9z m-3375 -20 c-16 -11 -35 -20 -42 -20 -7
0 -16 -6 -20 -13 -8 -13 -105 -77 -116 -77 -4 0 -7 13 -7 29 0 24 6 31 31 40
18 6 46 11 62 11 17 0 27 3 23 7 -4 4 10 15 31 25 53 23 74 22 38 -2z m95 16
c0 -3 -4 -8 -10 -11 -5 -3 -10 -1 -10 4 0 6 5 11 10 11 6 0 10 -2 10 -4z m41
-29 c-16 -16 -26 0 -10 19 9 11 15 12 17 4 2 -6 -1 -17 -7 -23z m1937 17 c13
-2 20 -9 17 -14 -3 -6 1 -10 9 -10 10 0 16 -9 16 -25 0 -23 -4 -25 -45 -25
-25 0 -45 3 -45 8 0 4 -19 7 -42 7 -41 0 -43 1 -42 30 1 17 2 33 3 37 1 7 81
2 129 -8z m912 6 c0 -5 -2 -10 -4 -10 -3 0 -8 5 -11 10 -3 6 -1 10 4 10 6 0
11 -4 11 -10z m-1110 -26 c0 -8 5 -12 10 -9 6 3 10 -1 10 -10 0 -11 -5 -15
-14 -12 -10 4 -16 -6 -20 -34 -7 -42 -17 -46 -85 -33 l-31 7 24 24 c15 15 30
22 37 17 8 -4 9 -3 5 4 -4 7 5 23 21 37 33 29 43 31 43 9z m1060 6 c0 -5 -2
-10 -4 -10 -3 0 -8 5 -11 10 -3 6 -1 10 4 10 6 0 11 -4 11 -10z m60 -11 c0 -5
4 -8 9 -4 15 9 24 -14 11 -29 -8 -11 -8 -15 2 -19 9 -3 5 -11 -12 -25 -15 -13
-29 -17 -34 -11 -6 5 -3 14 10 24 17 13 17 14 2 15 -10 0 -18 6 -19 13 0 6 -2
20 -4 30 -2 11 3 17 16 17 10 0 19 -5 19 -11z m135 -9 c3 -5 1 -10 -4 -10 -6
0 -10 -3 -9 -7 4 -15 -14 -73 -22 -73 -12 0 -39 56 -31 66 7 10 43 33 53 33 4
1 10 -3 13 -9z m280 -8 c-3 -3 -11 0 -18 7 -9 10 -8 11 6 5 10 -3 15 -9 12
-12z m-3298 -17 c-13 -28 -27 -33 -27 -10 0 8 5 15 11 15 5 0 7 5 4 10 -3 6 0
10 8 10 13 0 13 -4 4 -25z m997 3 c-5 -8 -2 -9 9 -5 13 5 17 1 17 -18 0 -22
-4 -25 -35 -25 -19 0 -35 5 -35 10 0 22 2 25 16 22 8 -2 14 1 13 5 -3 16 1 23
12 23 5 0 7 -5 3 -12z m1805 -15 c15 -33 2 -48 -33 -39 -30 7 -35 40 -8 55 25
15 27 14 41 -16z m271 23 c0 -3 -4 -8 -10 -11 -5 -3 -10 -1 -10 4 0 6 5 11 10
11 6 0 10 -2 10 -4z m214 -81 c78 -100 75 -115 -4 -19 -30 36 -61 72 -67 79
-15 16 -17 25 -5 25 5 0 39 -38 76 -85z m-3424 65 c0 -5 -4 -10 -10 -10 -5 0
-10 5 -10 10 0 6 5 10 10 10 6 0 10 -4 10 -10z m76 -7 c-4 -10 -39 -75 -79
-145 -55 -96 -79 -130 -99 -137 -30 -11 -26 -22 -43 122 l-5 42 107 68 c59 37
111 67 116 67 5 0 6 -8 3 -17z m3386 5 c33 -27 68 -96 60 -119 -8 -20 -13 -17
-60 42 -29 35 -52 69 -52 76 0 17 32 17 52 1z m-2067 -8 c3 -5 2 -10 -4 -10
-5 0 -13 5 -16 10 -3 6 -2 10 4 10 5 0 13 -4 16 -10z m520 1 c3 -5 1 -12 -5
-16 -5 -3 -10 1 -10 9 0 18 6 21 15 7z m1251 -18 c-10 -10 -19 5 -10 18 6 11
8 11 12 0 2 -7 1 -15 -2 -18z m173 -70 c26 -99 26 -103 3 -103 -16 0 -21 13
-30 83 -7 45 -12 91 -12 102 0 38 19 -1 39 -82z m218 91 c13 -4 20 -10 17 -15
-3 -5 0 -9 5 -9 6 0 11 4 11 9 0 5 15 9 32 8 24 -2 36 -9 45 -27 11 -22 10
-26 -12 -38 -14 -7 -25 -15 -25 -18 0 -2 9 0 21 6 24 13 27 11 32 -16 2 -10 7
-26 10 -34 4 -8 11 -36 16 -61 6 -25 13 -53 16 -62 6 -13 -1 -16 -35 -15 -38
0 -44 4 -71 47 -16 25 -29 52 -29 59 0 6 -4 12 -10 12 -5 0 -10 7 -10 15 0 8
4 15 8 15 5 0 17 7 28 16 18 15 18 15 -3 5 -31 -16 -37 -14 -22 7 13 15 12 16
-3 3 -15 -11 -21 -11 -34 0 -14 11 -54 81 -54 94 0 7 39 6 67 -1z m298 -4 c17
-7 16 -9 -9 -9 -16 -1 -26 -4 -23 -8 4 -3 -1 -12 -10 -18 -15 -11 -12 -12 17
-9 19 2 40 6 47 9 30 11 22 -25 -28 -126 -56 -115 -75 -136 -84 -91 -3 15 -12
50 -20 77 -41 147 -42 140 28 151 21 4 41 13 44 20 6 16 10 16 38 4z m-3885
-10 c0 -5 -7 -10 -16 -10 -8 0 -12 5 -9 10 3 6 10 10 16 10 5 0 9 -4 9 -10z
m1600 0 c0 -5 -4 -10 -10 -10 -5 0 -10 5 -10 10 0 6 5 10 10 10 6 0 10 -4 10
-10z m400 -5 c0 -8 -4 -15 -10 -15 -5 0 -10 7 -10 15 0 8 5 15 10 15 6 0 10
-7 10 -15z m858 2 c13 -15 5 -57 -10 -57 -6 0 -8 7 -4 15 3 8 1 15 -4 15 -6 0
-10 9 -10 20 0 23 13 26 28 7z m385 -20 c-5 -7 -17 -33 -27 -59 -19 -52 -31
-60 -39 -26 -4 15 5 36 30 71 21 28 39 45 41 38 2 -6 0 -17 -5 -24z m66 -34
c1 -18 4 -33 9 -33 4 0 6 -19 4 -43 l-4 -42 -44 3 c-24 2 -44 7 -44 11 0 3 14
43 32 89 33 86 46 90 47 15z m-3509 15 l0 -43 -120 -77 c-117 -75 -121 -77
-139 -59 -19 19 -37 99 -24 112 7 7 259 106 276 108 4 1 7 -18 7 -41z m2333
33 c16 -6 16 -9 5 -18 -17 -13 -110 -2 -116 15 -4 13 79 16 111 3z m1627 -1
c0 -5 -4 -10 -10 -10 -5 0 -10 5 -10 10 0 6 5 10 10 10 6 0 10 -4 10 -10z
m-3800 -10 c0 -5 -5 -10 -11 -10 -5 0 -7 5 -4 10 3 6 8 10 11 10 2 0 4 -4 4
-10z m180 4 c0 -15 -22 -44 -31 -39 -11 7 7 45 21 45 6 0 10 -3 10 -6z m390
-4 c0 -5 -11 -10 -25 -10 -14 0 -28 0 -32 -1 -4 0 -9 4 -11 10 -2 7 11 11 32
11 20 0 36 -4 36 -10z m2600 -44 c0 -17 -50 -67 -61 -61 -5 4 -6 11 -3 17 4 6
0 14 -7 19 -11 7 -9 10 9 15 20 6 28 25 23 59 -1 6 8 -1 19 -14 11 -13 20 -28
20 -35z m-1640 34 c0 -5 -2 -10 -4 -10 -3 0 -8 5 -11 10 -3 6 -1 10 4 10 6 0
11 -4 11 -10z m-1568 -22 c-7 -7 -12 -8 -12 -2 0 14 12 26 19 19 2 -3 -1 -11
-7 -17z m1734 8 c10 -8 16 -18 12 -21 -11 -11 -74 4 -88 20 -11 13 -7 15 22
15 19 0 43 -6 54 -14z m1346 -27 c16 -39 15 -69 -3 -69 -5 0 -9 6 -9 14 0 9
-7 12 -20 9 -11 -3 -20 0 -20 6 0 6 5 11 10 11 6 0 2 10 -10 22 l-20 22 22 13
c32 17 31 18 50 -28z m-2462 22 c0 -10 -42 -23 -49 -15 -7 6 20 24 37 24 6 0
12 -4 12 -9z m105 -8 c-4 -10 -11 -33 -15 -51 -10 -39 -20 -53 -20 -27 0 29
22 95 33 95 5 0 6 -8 2 -17z m1475 1 c0 -2 -11 -4 -25 -4 -14 0 -25 4 -25 9 0
4 11 6 25 3 14 -2 25 -6 25 -8z m-2228 -16 c-7 -7 -12 -8 -12 -2 0 14 12 26
19 19 2 -3 -1 -11 -7 -17z m1021 -2 c9 1 17 -2 17 -7 0 -5 -6 -9 -14 -9 -8 0
-14 -9 -13 -19 1 -16 5 -18 19 -10 10 5 18 13 18 17 0 4 16 8 35 10 l35 2 -19
-37 c-33 -66 -63 -85 -149 -99 -82 -13 -100 -10 -82 11 7 8 9 23 6 33 -9 27
104 139 119 119 6 -8 18 -13 28 -11z m954 13 c62 -11 82 -23 43 -26 -11 -1
-20 3 -20 10 0 7 -3 7 -9 2 -16 -16 -111 -6 -111 11 0 17 14 17 97 3z m1582
-53 c33 -38 39 -51 30 -62 -6 -8 -16 -14 -21 -14 -6 0 -5 7 2 15 11 14 10 14
-13 6 -25 -10 -27 -8 -36 27 -29 111 -31 109 38 28z m-3351 19 c-11 -24 -28
-34 -28 -16 0 21 13 41 26 41 11 0 11 -5 2 -25z m332 7 c0 -9 -61 -37 -102
-47 -16 -4 -28 -11 -28 -16 0 -5 -7 -9 -16 -9 -14 0 -88 -29 -124 -49 -9 -5
-30 -12 -48 -16 -18 -3 -32 -11 -32 -16 0 -5 -7 -9 -15 -9 -40 0 5 30 68 46
15 3 27 10 27 15 0 5 7 9 16 9 8 0 36 9 62 21 26 11 56 24 67 28 11 5 34 15
50 22 17 7 39 16 50 20 11 4 21 7 23 8 1 1 2 -3 2 -7z m77 -19 c-9 -9 -20 -13
-24 -9 -4 4 1 14 11 22 25 18 35 8 13 -13z m2395 -7 c4 -22 3 -24 -13 -15 -19
10 -25 30 -13 42 11 10 21 -1 26 -27z m-2366 -122 c-10 -25 -25 -15 -35 24
-16 54 -14 69 12 95 l22 22 3 -64 c2 -35 1 -70 -2 -77z m594 124 c0 -10 2 -10
9 0 7 11 11 10 24 -3 21 -21 8 -57 -24 -65 -55 -15 -129 -21 -129 -10 0 16 31
74 44 82 19 13 76 9 76 -4z m-107 -10 c-4 -7 -8 -17 -8 -22 0 -5 -6 -11 -12
-13 -7 -3 -13 -2 -13 1 0 12 25 46 33 46 4 0 5 -6 0 -12z m273 2 c9 0 12 -5 9
-10 -12 -19 26 -23 40 -4 13 18 14 18 36 -1 16 -14 23 -16 26 -7 3 6 8 12 13
12 15 0 -6 -176 -22 -186 -5 -3 -15 0 -23 6 -8 7 -15 9 -15 5 0 -4 8 -14 18
-22 15 -12 13 -13 -23 -10 -35 3 -40 6 -37 25 4 28 -11 28 -32 0 -12 -16 -16
-18 -12 -5 3 9 1 17 -4 17 -6 0 -1 9 10 20 25 25 27 62 3 58 -14 -2 -17 3 -16
22 2 22 2 23 -6 5 -7 -18 -10 -16 -25 19 -12 30 -14 42 -5 50 9 8 10 7 5 -4
-4 -8 -1 -7 6 3 7 9 19 15 26 12 8 -3 20 -5 28 -5z m-1496 -10 c0 -5 -4 -10
-10 -10 -5 0 -10 5 -10 10 0 6 5 10 10 10 6 0 10 -4 10 -10z m655 -9 c-5 -9
-45 -22 -45 -16 0 2 7 11 16 19 15 16 39 13 29 -3z m-385 -1 c0 -5 -4 -10 -10
-10 -5 0 -10 5 -10 10 0 6 5 10 10 10 6 0 10 -4 10 -10z m330 6 c0 -7 -406
-246 -418 -246 -7 0 -12 2 -12 5 0 13 41 84 52 92 19 12 351 151 366 152 6 0
12 -1 12 -3z m2766 -23 c-10 -10 -19 5 -10 18 6 11 8 11 12 0 2 -7 1 -15 -2
-18z m419 17 c-3 -5 -2 -10 3 -10 12 0 77 -99 69 -106 -6 -6 -67 70 -67 85 0
7 -7 14 -15 17 -16 6 -11 24 6 24 6 0 7 -4 4 -10z m-3815 -4 c0 -3 -4 -8 -10
-11 -5 -3 -10 -1 -10 4 0 6 5 11 10 11 6 0 10 -2 10 -4z m1809 -17 l24 -20
-38 -34 c-36 -34 -75 -46 -75 -25 0 6 8 10 18 8 11 -2 18 4 20 19 3 17 0 21
-12 17 -18 -7 -20 4 -7 25 5 7 14 10 20 7 6 -4 11 -4 10 1 -5 29 8 29 40 2z
m125 6 c-4 -8 -11 -15 -16 -15 -6 0 -5 6 2 15 7 8 14 15 16 15 2 0 1 -7 -2
-15z m-1304 -9 c0 -8 -11 -17 -25 -20 -14 -4 -25 -11 -25 -16 0 -6 -5 -10 -11
-10 -6 0 -67 -34 -136 -75 -68 -41 -126 -75 -129 -75 -2 0 -4 4 -4 10 0 5 11
12 25 16 14 3 25 10 25 15 0 5 6 9 14 9 8 0 21 6 28 14 8 7 24 17 36 20 12 4
22 12 22 17 0 5 6 9 14 9 8 0 21 6 28 14 8 7 24 17 36 20 12 4 22 12 22 17 0
5 6 9 13 9 8 0 24 9 37 20 27 24 30 24 30 6z m78 -38 c6 -29 7 -56 4 -59 -9
-8 -324 -80 -329 -75 -4 3 297 185 308 186 4 0 11 -24 17 -52z m-738 38 c0 -3
-4 -8 -10 -11 -5 -3 -10 -1 -10 4 0 6 5 11 10 11 6 0 10 -2 10 -4z m2057 -8
c9 -12 63 -142 63 -153 0 -2 -6 -2 -14 1 -8 3 -12 12 -9 21 5 12 1 14 -14 9
-16 -5 -31 6 -71 50 -28 30 -49 61 -46 68 6 17 79 20 91 4z m93 -15 c0 -10 -5
-36 -11 -58 l-11 -39 -15 28 c-8 16 -17 42 -20 58 -4 26 -2 28 26 28 23 0 31
-5 31 -17z m1030 7 c0 -5 -6 -10 -14 -10 -8 0 -18 5 -21 10 -3 6 3 10 14 10
12 0 21 -4 21 -10z m990 -55 c-6 -19 -18 -35 -26 -35 -18 0 -18 1 9 56 24 51
36 37 17 -21z m-4205 45 c-3 -5 -11 -10 -16 -10 -6 0 -7 5 -4 10 3 6 11 10 16
10 6 0 7 -4 4 -10z m1939 -6 c3 -8 2 -12 -4 -9 -24 15 -6 -8 41 -52 44 -41 48
-48 32 -54 -15 -6 -14 -8 7 -9 14 0 36 -10 50 -21 l25 -21 -31 6 c-17 3 -67 8
-110 11 -43 4 -86 9 -94 13 -8 3 -26 6 -40 6 -34 1 -37 20 -4 24 21 3 24 6 13
13 -10 6 -6 9 16 9 22 0 26 3 17 12 -9 9 -6 18 15 40 15 15 33 28 40 28 7 0
13 5 13 10 0 15 7 12 14 -6z m392 1 c10 -8 27 -15 37 -15 13 0 17 -6 14 -27
-5 -36 -45 -65 -98 -69 -23 -2 -46 -9 -50 -16 -5 -8 -10 -2 -14 15 -4 16 -2
33 5 42 6 8 9 18 6 24 -3 5 -2 21 4 35 8 21 16 26 43 26 18 0 42 -7 53 -15z
m1564 -42 c-1 -10 -39 39 -40 51 0 5 9 -3 20 -17 11 -14 20 -29 20 -34z m-450
37 c0 -5 -4 -10 -10 -10 -5 0 -10 5 -10 10 0 6 5 10 10 10 6 0 10 -4 10 -10z
m-3480 -10 c0 -5 -5 -10 -11 -10 -5 0 -7 5 -4 10 3 6 8 10 11 10 2 0 4 -4 4
-10z m360 1 c0 -6 -4 -13 -10 -16 -5 -3 -10 1 -10 9 0 9 5 16 10 16 6 0 10 -4
10 -9z m1235 -21 c22 -22 25 -30 13 -30 -14 0 -31 -27 -33 -52 0 -5 -3 -8 -7
-8 -5 0 -15 0 -23 0 -11 0 -15 12 -15 44 0 83 18 95 65 46z m2065 16 c0 -11
-10 -13 -42 -9 -64 8 -70 23 -10 23 38 0 52 -4 52 -14z m-2203 -24 c-21 -23
-22 -39 -2 -22 11 9 15 9 15 1 0 -7 5 -9 10 -6 6 3 10 2 10 -4 0 -6 -13 -9
-30 -7 -19 2 -35 -3 -46 -15 -22 -24 -54 -25 -55 -1 0 10 -3 12 -6 5 -5 -15
-63 -18 -63 -4 0 28 39 52 105 64 39 7 72 12 74 10 2 -1 -3 -11 -12 -21z
m2273 18 c0 -5 -7 -10 -16 -10 -8 0 -12 5 -9 10 3 6 10 10 16 10 5 0 9 -4 9
-10z m-3760 -10 c0 -5 -4 -10 -10 -10 -5 0 -10 5 -10 10 0 6 5 10 10 10 6 0
10 -4 10 -10z m3870 0 c0 -5 -11 -10 -25 -10 -14 0 -25 5 -25 10 0 6 11 10 25
10 14 0 25 -4 25 -10z m-1810 -15 c7 -9 8 -15 2 -15 -5 0 -12 7 -16 15 -3 8
-4 15 -2 15 2 0 9 -7 16 -15z m500 -22 c0 -13 -3 -13 -15 -3 -8 7 -15 19 -15
27 0 13 3 13 15 3 8 -7 15 -19 15 -27z m-2590 17 c0 -5 -4 -10 -10 -10 -5 0
-10 5 -10 10 0 6 5 10 10 10 6 0 10 -4 10 -10z m1300 -20 c0 -17 -7 -20 -38
-20 -55 0 -60 12 -10 26 24 6 44 12 46 13 1 0 2 -8 2 -19z m1320 -10 c0 -5 -2
-10 -4 -10 -3 0 -8 5 -11 10 -3 6 -1 10 4 10 6 0 11 -4 11 -10z m710 0 c0 -5
-5 -10 -11 -10 -5 0 -7 5 -4 10 3 6 8 10 11 10 2 0 4 -4 4 -10z m-3006 -15
c-4 -8 -12 -15 -20 -15 -20 0 -17 18 4 23 9 3 18 5 19 6 1 0 0 -6 -3 -14z
m2133 -13 c-10 -10 -14 -22 -10 -25 3 -4 2 -7 -4 -7 -19 0 -23 29 -5 39 27 16
36 13 19 -7z m103 -20 c-27 -4 -32 0 -24 22 6 16 8 16 26 -1 20 -18 20 -18 -2
-21z m740 34 c0 -3 -4 -8 -10 -11 -5 -3 -10 -1 -10 4 0 6 5 11 10 11 6 0 10
-2 10 -4z m133 -29 c-3 -5 -9 -3 -14 4 -4 7 -5 17 -2 22 3 5 9 3 14 -4 4 -7 5
-17 2 -22z m150 7 c-12 -9 -14 -13 -5 -14 7 0 10 -4 7 -10 -9 -15 -22 -12 -29
6 -8 21 11 45 30 37 12 -4 12 -8 -3 -19z m-3223 -2 c0 -13 -12 -22 -22 -16
-10 6 -1 24 13 24 5 0 9 -4 9 -8z m3150 1 c-1 -10 -36 -53 -44 -53 -11 0 -6
20 11 40 18 20 33 26 33 13z m216 -7 c15 -16 20 -71 5 -62 -5 3 -18 22 -30 41
-17 29 -18 35 -5 35 9 0 22 -6 30 -14z m57 -19 c-3 -5 -9 -3 -14 4 -4 7 -5 17
-2 22 3 5 9 3 14 -4 4 -7 5 -17 2 -22z m-3558 4 c-9 -16 -45 -20 -45 -6 0 8 8
15 18 18 21 4 34 -1 27 -12z m1023 3 c18 -4 21 -8 13 -23 -6 -10 -25 -24 -43
-32 -18 -7 -36 -17 -40 -23 -4 -6 -12 -5 -22 4 -14 11 -16 10 -10 -3 4 -11 -6
-22 -36 -37 -45 -23 -57 -21 -45 7 5 10 10 27 12 37 5 29 11 32 36 17 l22 -14
-20 23 c-19 23 -19 23 -1 16 19 -7 19 -6 2 13 -13 14 -14 20 -4 24 14 5 97 0
136 -9z m1096 -5 c-19 -22 -19 -22 3 -10 29 15 103 4 103 -15 0 -8 -7 -14 -15
-14 -8 0 -15 5 -15 12 0 9 -3 9 -12 0 -11 -11 -88 -18 -88 -8 0 2 -3 11 -6 20
-4 11 -1 16 10 16 9 0 16 5 16 10 0 6 5 10 12 10 6 0 3 -10 -8 -21z m71 11 c3
-5 1 -10 -4 -10 -6 0 -11 5 -11 10 0 6 2 10 4 10 3 0 8 -4 11 -10z m1255 -49
c23 -49 23 -51 5 -71 -22 -25 -63 -26 -72 -2 -3 9 -15 25 -27 34 -12 10 -16
18 -9 18 6 0 9 8 6 19 -3 12 5 24 28 39 18 11 36 19 39 17 3 -2 17 -26 30 -54z
m272 -11 c8 -65 -3 -120 -24 -120 -5 0 -6 -6 -2 -12 6 -10 5 -10 -7 -1 -9 7
-21 37 -28 67 -10 46 -9 59 5 95 25 63 47 52 56 -29z m-3042 50 c0 -6 -20 -41
-45 -77 -28 -42 -41 -70 -34 -74 15 -9 -12 -51 -29 -44 -9 3 -11 -1 -7 -14 3
-11 0 -23 -6 -27 -8 -5 -10 -2 -6 9 3 8 0 17 -6 20 -15 6 -50 127 -45 158 2
19 14 26 68 40 77 20 110 23 110 9z m14 -37 c-10 -7 -15 -13 -11 -13 4 0 -2
-9 -14 -21 -32 -32 -31 -19 4 35 24 36 33 44 36 30 2 -10 -5 -24 -15 -31z
m3242 34 c10 4 12 0 8 -11 -3 -9 -8 -16 -11 -16 -11 0 -31 28 -25 34 4 4 8 3
10 -3 2 -5 10 -7 18 -4z m88 -31 c-3 -14 -10 -26 -14 -26 -12 0 -18 59 -6 64
19 6 27 -10 20 -38z m-2824 17 c0 -11 -102 -133 -111 -133 -6 0 -7 -4 -4 -10
3 -5 2 -10 -2 -10 -5 0 -14 4 -21 10 -9 7 -9 7 -2 -2 14 -17 13 -23 -16 -58
-15 -17 -23 -34 -19 -38 3 -4 11 1 16 11 6 9 15 17 21 17 6 0 3 -9 -7 -20 -10
-12 -24 -19 -31 -16 -7 3 -36 -25 -66 -64 -46 -61 -71 -78 -87 -60 -6 7 22 50
33 50 4 0 3 -7 -4 -15 -6 -8 -10 -20 -8 -27 3 -7 35 47 72 120 61 119 70 132
89 126 21 -6 21 -5 3 8 -18 14 -18 16 10 64 15 27 31 51 35 54 9 6 99 0 99 -7z
m2900 7 c0 -5 -5 -10 -11 -10 -5 0 -7 5 -4 10 3 6 8 10 11 10 2 0 4 -4 4 -10z
m-4150 -8 c0 -4 -17 -14 -37 -21 -43 -15 -100 -39 -124 -51 -17 -9 -29 -4 -29
12 0 4 11 8 24 8 14 0 28 5 31 10 4 6 11 8 16 5 5 -4 9 -2 9 4 0 5 19 16 43
24 49 18 67 20 67 9z m165 -2 c-3 -5 -10 -10 -16 -10 -5 0 -9 5 -9 10 0 6 7
10 16 10 8 0 12 -4 9 -10z m3495 -4 c0 -8 -6 -17 -12 -19 -10 -4 -10 -8 1 -15
13 -9 12 -16 -4 -51 -10 -23 -21 -41 -24 -41 -3 0 -7 23 -9 51 -2 38 1 56 14
70 20 23 34 24 34 5z m-3600 -1 c0 -2 -5 -15 -11 -28 -9 -21 -27 -28 -131 -52
-65 -15 -121 -25 -124 -22 -5 5 234 106 254 106 6 1 12 -1 12 -4z m1186 -42
c-15 -21 -37 -50 -48 -65 -12 -15 -20 -30 -17 -32 2 -3 30 28 62 69 39 51 62
72 72 69 17 -7 20 -20 5 -29 -5 -3 -10 0 -11 7 0 7 -19 -26 -42 -73 -29 -59
-46 -84 -56 -81 -12 4 -12 3 0 -11 8 -8 17 -13 22 -10 4 2 7 -1 7 -6 0 -15
-11 -13 -34 4 -23 17 -36 19 -36 5 0 -5 3 -9 8 -9 29 5 31 -3 12 -52 -34 -92
-62 -122 -175 -193 -59 -37 -109 -65 -113 -62 -3 3 -11 1 -19 -5 -15 -13 -17
-1 -3 21 8 12 12 12 18 2 6 -9 27 12 71 69 35 44 60 83 57 86 -3 4 -13 -2 -20
-13 -8 -10 -17 -16 -21 -13 -9 10 26 41 41 35 7 -3 27 14 46 39 18 25 39 45
46 45 7 0 10 5 7 10 -4 6 9 26 28 45 28 28 32 37 21 46 -11 9 -4 24 39 79 54
71 80 88 33 23z m124 25 c0 -13 -5 -65 -10 -116 -9 -93 -25 -132 -56 -132 -7
0 -14 -4 -16 -8 -4 -11 -81 -63 -85 -58 -8 7 50 116 58 110 5 -3 6 1 3 9 -3 8
9 46 26 83 18 38 38 84 46 102 16 37 34 42 34 10z m1050 2 c0 -16 -7 -20 -35
-20 -28 0 -35 4 -35 20 0 16 7 20 35 20 28 0 35 -4 35 -20z m-986 -17 c-4 -16
-8 -40 -7 -55 0 -27 -10 -37 -21 -19 -12 18 6 101 21 101 12 0 13 -6 7 -27z
m127 9 c-15 -26 -131 -138 -131 -125 0 6 6 16 14 22 15 13 31 58 27 79 -1 6 3
12 9 12 6 0 9 4 5 9 -3 5 7 11 22 13 65 7 64 8 54 -10z m2539 1 c0 -22 -17
-50 -25 -42 -6 7 11 59 20 59 3 0 5 -8 5 -17z m-3640 -8 c0 -12 -62 -114 -78
-127 -13 -12 -30 -14 -77 -7 -33 4 -86 8 -117 8 -57 1 -69 9 -50 37 4 6 54 23
112 38 58 14 125 33 150 40 51 17 60 18 60 11z m40 -10 c0 -8 -7 -15 -15 -15
-8 0 -15 7 -15 15 0 8 7 15 15 15 8 0 15 -7 15 -15z m460 -209 c-61 -118 -118
-223 -126 -233 -12 -16 -13 -7 -10 73 5 101 9 120 37 215 l21 66 76 39 c42 21
82 45 90 52 8 7 17 11 19 8 3 -2 -45 -101 -107 -220z m717 193 c48 -97 61
-143 46 -152 -5 -2 -2 -2 5 -1 7 2 17 -8 22 -22 13 -34 14 -34 -19 -34 -45 0
-91 12 -85 21 3 5 -6 4 -20 -2 -29 -14 -80 -4 -72 14 2 7 24 56 47 110 24 53
48 96 53 94 6 -2 16 -14 23 -28z m118 21 c-5 -9 14 -15 37 -11 53 7 98 7 98 1
0 -5 9 -7 20 -5 11 2 22 -1 25 -6 4 -5 10 -7 15 -4 5 3 11 1 14 -4 3 -5 14 -7
24 -4 33 8 40 -31 21 -120 -9 -43 -23 -83 -30 -88 -17 -12 -219 0 -236 13 -22
17 -26 61 -6 75 16 13 16 13 -5 11 -19 -3 -27 7 -52 66 -31 73 -32 88 -3 65 9
-8 14 -9 10 -2 -5 8 5 13 30 16 21 2 39 4 41 5 2 1 0 -2 -3 -8z m-480 -10 c3
-5 1 -10 -4 -10 -6 0 -11 5 -11 10 0 6 2 10 4 10 3 0 8 -4 11 -10z m275 5 c0
-3 -15 -38 -33 -78 -19 -40 -39 -84 -45 -99 -14 -35 -49 -37 -62 -5 -8 20 -9
20 -9 3 -1 -15 -4 -17 -12 -9 -13 13 -1 29 95 134 47 52 66 68 66 54z m1791
-22 c8 -16 17 -30 21 -33 3 -3 0 -13 -7 -23 -28 -38 -78 20 -55 63 14 27 24
25 41 -7z m762 7 c-3 -12 -8 -19 -11 -16 -5 6 5 36 12 36 2 0 2 -9 -1 -20z
m-3590 -54 c9 -36 20 -72 23 -80 3 -9 2 -16 -3 -16 -5 0 -17 29 -26 64 -9 36
-20 72 -23 80 -3 9 -2 16 3 16 5 0 17 -29 26 -64z m-20 -26 c13 -41 20 -79 16
-84 -10 -12 -109 25 -109 41 0 7 -6 10 -14 7 -20 -8 -29 12 -14 35 9 15 16 18
32 10 20 -10 20 -10 2 5 -17 14 -17 17 -4 38 9 14 25 23 41 23 24 0 29 -7 50
-75z m557 71 c0 -6 -4 -13 -10 -16 -5 -3 -10 1 -10 9 0 9 5 16 10 16 6 0 10
-4 10 -9z m-357 -23 c-6 -7 -16 -35 -22 -63 -15 -60 -26 -75 -57 -75 -22 0
-21 4 27 80 29 45 54 78 57 76 3 -3 0 -11 -5 -18z m572 12 c-3 -5 -11 -10 -16
-10 -6 0 -7 5 -4 10 3 6 11 10 16 10 6 0 7 -4 4 -10z m-621 -24 c-6 -16 -24
-23 -24 -8 0 10 22 33 27 28 2 -2 1 -11 -3 -20z m1574 5 c1 -1 2 -10 2 -21 0
-16 9 -21 53 -27 28 -4 58 -6 65 -5 21 5 14 -14 -22 -56 l-33 -41 -84 80 -84
80 50 -5 c28 -3 51 -5 53 -5z m1432 -10 c0 -11 3 -26 6 -35 5 -12 0 -16 -20
-16 -29 0 -31 7 -14 45 13 30 28 33 28 6z m395 10 c3 -5 1 -12 -5 -16 -5 -3
-10 1 -10 9 0 18 6 21 15 7z m-2795 -8 c0 -17 -19 -37 -27 -29 -4 5 -2 11 5
13 6 3 10 9 6 14 -3 5 0 9 5 9 6 0 11 -3 11 -7z m2268 -18 c11 -24 11 -25 -30
-25 l-41 0 23 25 c13 14 26 25 30 25 4 0 12 -11 18 -25z m-2498 -4 c0 -12 -20
-25 -27 -18 -7 7 6 27 18 27 5 0 9 -4 9 -9z m1139 -72 c42 -45 76 -89 76 -97
0 -13 -11 -15 -60 -13 -67 2 -131 17 -140 31 -8 13 27 160 38 160 5 0 44 -37
86 -81z m1671 77 c0 -3 -4 -8 -10 -11 -5 -3 -10 -1 -10 4 0 6 5 11 10 11 6 0
10 -2 10 -4z m-3762 -18 c-7 -19 -38 -22 -38 -4 0 10 9 16 21 16 12 0 19 -5
17 -12z m3886 -10 c9 -36 7 -40 -16 -32 -31 9 -31 9 -18 33 14 27 26 27 34 -1z
m-3944 8 c0 -3 -4 -8 -10 -11 -5 -3 -10 -1 -10 4 0 6 5 11 10 11 6 0 10 -2 10
-4z m1220 -16 c0 -5 -5 -10 -11 -10 -5 0 -7 -4 -4 -10 3 -5 1 -10 -4 -10 -13
0 -13 3 -5 24 7 18 24 22 24 6z m2587 4 c-3 -3 -12 -4 -19 -1 -8 3 -5 6 6 6
11 1 17 -2 13 -5z m-2817 -14 c0 -5 -4 -10 -10 -10 -5 0 -10 5 -10 10 0 6 5
10 10 10 6 0 10 -4 10 -10z m1364 -64 c-9 -36 -20 -66 -24 -66 -4 0 -15 9 -25
20 -17 19 -16 21 21 69 21 28 39 49 41 47 2 -2 -4 -33 -13 -70z m-1269 45 c-3
-6 -11 -11 -17 -11 -6 0 -6 6 2 15 14 17 26 13 15 -4z m1314 -65 c-13 -15 -11
-26 6 -26 27 0 17 -37 -12 -44 -38 -10 -45 10 -22 68 22 59 22 59 10 52 -5 -4
-6 4 -3 16 5 20 8 18 18 -17 7 -23 8 -44 3 -49z m781 59 c0 -9 -8 -27 -17 -42
-16 -23 -17 -24 -24 -7 -4 11 -8 29 -8 42 -1 17 5 22 24 22 16 0 25 -6 25 -15z
m178 -8 c11 -9 10 -12 -2 -19 -8 -5 -13 -15 -10 -23 10 -26 -22 -16 -34 10
-18 40 -15 54 11 48 12 -3 28 -11 35 -16z m-2388 3 c0 -5 -4 -10 -10 -10 -5 0
-10 5 -10 10 0 6 5 10 10 10 6 0 10 -4 10 -10z m2513 -18 c16 -14 24 -42 11
-42 -11 0 -84 44 -84 50 0 24 41 20 73 -8z m32 8 c3 -5 2 -10 -4 -10 -5 0 -13
5 -16 10 -3 6 -2 10 4 10 5 0 13 -4 16 -10z m147 -25 c-6 -30 -12 -32 -28 -11
-20 28 -17 38 9 34 16 -2 21 -9 19 -23z m-2712 5 c0 -5 -5 -10 -11 -10 -5 0
-7 5 -4 10 3 6 8 10 11 10 2 0 4 -4 4 -10z m230 -10 c0 -5 -5 -10 -11 -10 -5
0 -7 5 -4 10 3 6 8 10 11 10 2 0 4 -4 4 -10z m2253 -12 c18 -13 34 -24 36 -25
9 -5 -66 -82 -76 -78 -7 2 -10 -2 -6 -11 11 -28 -15 -13 -27 16 -10 24 -10 33
0 45 9 11 9 15 1 15 -7 0 -3 10 9 22 11 12 20 25 20 30 0 13 8 10 43 -14z
m137 8 c0 -8 11 -27 25 -42 34 -37 22 -44 -15 -9 -29 28 -40 65 -20 65 6 0 10
-7 10 -14z m365 4 c-3 -6 1 -7 9 -4 30 11 16 -12 -16 -30 -29 -15 -18 -14 21
2 8 3 -10 -41 -40 -98 -30 -57 -59 -105 -66 -107 -20 -7 -53 35 -53 68 0 41
15 66 53 90 28 18 29 20 7 14 -23 -5 -23 -5 -8 8 10 8 15 17 12 20 -3 3 -1 15
6 26 8 15 20 21 46 21 21 0 33 -4 29 -10z m185 -55 l44 -50 -47 45 c-26 24
-47 48 -47 54 0 5 1 7 3 5 2 -2 23 -26 47 -54z m-3180 35 c0 -5 -4 -10 -10
-10 -5 0 -10 5 -10 10 0 6 5 10 10 10 6 0 10 -4 10 -10z m2316 -27 c8 -21 18
-45 23 -53 12 -23 -6 -62 -26 -58 -15 3 -19 16 -21 73 -2 48 -6 65 -12 55 -8
-13 -10 -12 -10 3 0 31 31 18 46 -20z m-2636 13 c0 -20 -13 -27 -30 -15 -13 8
-13 10 0 19 21 14 30 12 30 -4z m550 4 c0 -5 -4 -10 -10 -10 -5 0 -10 5 -10
10 0 6 5 10 10 10 6 0 10 -4 10 -10z m2566 -17 c-10 -10 -19 5 -10 18 6 11 8
11 12 0 2 -7 1 -15 -2 -18z m-2322 11 c20 -8 21 -30 1 -38 -9 -3 -12 -12 -8
-22 5 -13 1 -12 -15 4 -12 12 -22 28 -22 35 0 8 4 7 10 -3 8 -12 10 -11 10 8
0 24 1 25 24 16z m2154 -33 c6 -18 -36 9 -43 28 -5 11 -2 11 17 -1 12 -8 24
-20 26 -27z m-2644 14 c-6 -16 -24 -21 -24 -7 0 11 11 22 21 22 5 0 6 -7 3
-15z m2273 -7 c-3 -8 -6 -5 -6 6 -1 11 2 17 5 13 3 -3 4 -12 1 -19z m-2202 -7
c-3 -6 -11 -11 -17 -11 -6 0 -6 6 2 15 14 17 26 13 15 -4z m731 -4 c6 -7 19
-32 28 -56 14 -36 15 -46 4 -53 -13 -9 -173 -5 -213 5 -11 2 -36 -2 -55 -10
-19 -8 -40 -17 -46 -19 -18 -8 -25 26 -9 43 8 8 13 18 10 23 -3 5 -1 11 5 15
5 3 10 15 10 25 0 10 8 26 17 36 15 14 31 16 128 10 64 -4 115 -12 121 -19z
m1749 -39 c-19 -41 -30 -54 -50 -56 -14 -2 -25 0 -25 5 0 11 82 103 92 103 4
0 -4 -24 -17 -52z m-1528 19 c16 -7 22 -16 18 -29 -3 -10 -7 -26 -10 -35 -4
-15 -17 -18 -85 -18 l-80 0 -20 47 c-11 26 -20 50 -20 54 0 9 170 -6 197 -19z
m-807 3 c0 -5 -4 -10 -10 -10 -5 0 -10 5 -10 10 0 6 5 10 10 10 6 0 10 -4 10
-10z m106 -7 c-4 -9 -1 -21 6 -26 9 -6 8 -7 -4 -3 -11 3 -21 -2 -28 -14 -5
-10 -16 -24 -22 -32 -7 -7 -22 -29 -32 -48 -33 -60 -100 -160 -107 -160 -9 0
-18 38 -10 45 3 4 10 25 16 48 6 27 18 46 33 53 28 14 42 27 19 18 -29 -11
-19 13 25 58 23 24 41 46 40 50 -1 4 4 5 11 2 7 -2 21 2 32 10 26 20 28 20 21
-1z m108 8 c4 -5 0 -11 -6 -14 -9 -3 -5 -10 10 -22 25 -19 25 -26 -11 -112
-12 -29 -26 -53 -30 -53 -9 0 2 153 12 160 4 3 6 15 5 28 -1 22 10 30 20 13z
m1836 -11 c-6 -11 -15 -20 -21 -20 -6 0 -6 7 1 20 6 11 15 20 21 20 6 0 6 -7
-1 -20z m374 -2 c40 -26 46 -48 14 -48 -17 0 -19 -3 -9 -9 22 -14 -4 -22 -48
-15 -23 4 -41 10 -41 15 0 15 33 79 41 79 4 0 23 -10 43 -22z m-1375 -4 c3 -2
-9 -21 -25 -41 -38 -46 -66 -51 -90 -15 -10 15 -19 30 -19 34 0 3 -3 10 -7 14
-18 17 -4 21 65 16 39 -2 74 -6 76 -8z m1844 -106 c20 -67 35 -124 33 -126 -2
-1 -42 15 -89 37 l-86 39 46 86 c25 47 49 86 53 86 4 0 23 -55 43 -122z
m-1726 80 c14 -13 23 -33 23 -51 l0 -30 -52 7 c-29 3 -68 6 -85 6 -41 0 -42
15 -2 58 36 39 81 43 116 10z m-263 -23 c21 -32 21 -32 -18 -27 -28 3 -33 8
-33 28 0 32 30 32 51 -1z m-1132 -17 c-12 -13 -22 -17 -22 -11 0 15 31 46 38
38 3 -3 -4 -15 -16 -27z m374 -10 c-3 -13 -8 -54 -11 -93 -9 -97 -14 -115 -35
-115 -15 0 -19 10 -22 54 -1 30 0 52 4 50 6 -4 48 97 48 116 0 6 5 10 10 10 6
0 8 -10 6 -22z m-443 -23 c-22 -29 -27 -26 -13 9 5 15 14 24 20 21 6 -4 3 -15
-7 -30z m407 5 c0 -5 -5 -10 -11 -10 -5 0 -7 5 -4 10 3 6 8 10 11 10 2 0 4 -4
4 -10z m605 0 c3 -6 -4 -10 -17 -10 -18 0 -20 2 -8 10 19 12 18 12 25 0z m45
0 c0 -5 -7 -10 -15 -10 -8 0 -15 5 -15 10 0 6 7 10 15 10 8 0 15 -4 15 -10z
m1370 6 c0 -11 -19 -15 -25 -6 -3 5 1 10 9 10 9 0 16 -2 16 -4z m55 -6 c3 -6
-1 -13 -10 -16 -19 -8 -30 0 -20 15 8 14 22 14 30 1z m-2435 -4 c0 -9 -32 -36
-42 -36 -6 0 -1 9 12 20 23 20 30 24 30 16z m2540 -5 c0 -17 -18 -21 -24 -6
-3 9 0 15 9 15 8 0 15 -4 15 -9z m60 0 c0 -5 8 -7 18 -5 19 5 50 -11 40 -21
-4 -4 -23 -2 -42 5 -20 6 -40 9 -46 5 -11 -7 -14 8 -3 18 9 10 33 8 33 -2z
m-1805 -11 c-3 -5 -13 -10 -21 -10 -8 0 -14 5 -14 10 0 6 9 10 21 10 11 0 17
-4 14 -10z m-481 -37 c-10 -21 -18 -47 -18 -59 -1 -15 -6 -19 -23 -16 l-22 4
26 42 c47 76 63 88 37 29z m-164 17 c0 -5 -6 -10 -14 -10 -8 0 -18 -4 -21 -10
-3 -6 1 -7 9 -4 21 8 20 -3 -4 -33 -11 -14 -20 -34 -20 -45 0 -22 -19 -31 -68
-31 -122 1 -129 9 -49 49 28 15 55 31 58 36 9 14 82 57 97 58 6 0 12 -4 12
-10z m-226 -15 c-4 -8 -10 -15 -15 -15 -4 0 -6 7 -3 15 4 8 10 15 15 15 4 0 6
-7 3 -15z m366 11 c0 -3 -4 -8 -10 -11 -5 -3 -10 -1 -10 4 0 6 5 11 10 11 6 0
10 -2 10 -4z m890 -6 c0 -5 -6 -10 -14 -10 -8 0 -18 5 -21 10 -3 6 3 10 14 10
12 0 21 -4 21 -10z m108 -9 c3 -8 -1 -12 -9 -9 -7 2 -15 10 -17 17 -3 8 1 12
9 9 7 -2 15 -10 17 -17z m1477 10 c3 -5 0 -13 -6 -17 -7 -4 -9 -3 -5 4 3 6 -2
13 -11 15 -16 4 -16 5 -1 6 9 0 19 -3 23 -8z m-1382 -13 c-2 -5 -17 -8 -34 -8
-16 0 -29 3 -29 8 0 4 15 7 34 7 19 0 32 -3 29 -7z m121 -3 c4 -10 -1 -15 -15
-15 -17 0 -18 2 -7 15 16 18 15 18 22 0z m1431 -5 c3 -5 3 -15 -1 -21 -6 -11
-23 6 -24 24 0 10 18 9 25 -3z m-510 -10 c3 -5 -1 -10 -9 -10 -9 0 -16 5 -16
10 0 6 4 10 9 10 6 0 13 -4 16 -10z m183 1 c10 -1 10 -6 1 -23 -8 -14 -14 -18
-17 -10 -2 6 -8 9 -13 6 -11 -6 -39 13 -39 28 0 5 12 7 28 4 15 -2 33 -5 40
-5z m114 -13 c-4 -16 -2 -19 9 -13 11 6 11 5 2 -5 -18 -19 -32 -8 -22 18 11
28 19 29 11 0z m-2162 0 c0 -7 7 -26 15 -42 16 -30 10 -53 -6 -24 -6 10 -17
14 -29 11 -19 -5 -20 -2 -14 23 4 16 9 32 11 37 7 12 23 8 23 -5z m678 -25 c4
-27 -5 -29 -30 -6 -24 22 -23 31 5 29 15 -1 23 -8 25 -23z m1606 7 c3 -11 9
-29 12 -40 4 -17 1 -20 -25 -20 -39 0 -43 9 -24 48 18 37 29 41 37 12z m-2363
-43 c-8 -8 -11 -4 -11 14 0 33 14 47 18 19 2 -12 -1 -27 -7 -33z m802 28 c4
-8 2 -17 -3 -20 -6 -4 -10 -4 -10 -1 0 2 -3 11 -6 20 -3 9 -2 16 4 16 5 0 12
-7 15 -15z m1177 -5 c0 -18 -31 -24 -46 -8 -12 12 -10 14 16 16 16 1 30 -2 30
-8z m130 -16 c0 -8 -4 -12 -10 -9 -5 3 -10 10 -10 16 0 5 5 9 10 9 6 0 10 -7
10 -16z m-2460 -4 c0 -5 -4 -10 -10 -10 -5 0 -10 5 -10 10 0 6 5 10 10 10 6 0
10 -4 10 -10z m1180 -19 c0 -20 -13 -35 -23 -25 -7 8 4 44 14 44 5 0 9 -9 9
-19z m-33 3 c-3 -3 -12 -4 -19 -1 -8 3 -5 6 6 6 11 1 17 -2 13 -5z"/>
<path d="M2046 2015 c-2 -6 2 -12 10 -12 7 0 15 6 18 12 2 6 -2 12 -10 12 -7
0 -15 -6 -18 -12z"/>
<path d="M3325 1420 c-3 -6 1 -7 9 -4 18 7 21 14 7 14 -6 0 -13 -4 -16 -10z"/>
<path d="M1840 1370 c-8 -5 -12 -11 -10 -14 3 -2 14 2 24 10 22 15 10 19 -14
4z"/>
<path d="M1950 1370 c-8 -5 -12 -11 -9 -14 3 -3 14 1 25 9 21 16 8 20 -16 5z"/>
<path d="M2260 1310 c0 -5 5 -10 10 -10 6 0 10 5 10 10 0 6 -4 10 -10 10 -5 0
-10 -4 -10 -10z"/>
<path d="M4249 1358 c-8 -25 -3 -45 10 -41 10 2 26 -12 44 -42 16 -25 31 -45
34 -45 5 0 -10 26 -43 74 -11 16 -11 23 -1 35 9 12 9 13 0 7 -7 -4 -13 -2 -13
3 0 9 -28 17 -31 9z"/>
<path d="M2612 1327 c-12 -13 -22 -26 -22 -30 0 -16 18 -5 38 23 27 35 15 40
-16 7z"/>
<path d="M768 1023 c12 -2 30 -2 40 0 9 3 -1 5 -23 4 -22 0 -30 -2 -17 -4z"/>
<path d="M2200 974 c0 -8 5 -12 10 -9 6 3 10 10 10 16 0 5 -4 9 -10 9 -5 0
-10 -7 -10 -16z"/>
<path d="M2608 1063 c-10 -2 -18 -9 -18 -14 0 -6 8 -5 20 1 11 6 20 13 20 15
0 3 -1 4 -2 4 -2 -1 -11 -3 -20 -6z"/>
<path d="M3420 1011 c0 -5 7 -11 15 -15 9 -3 15 0 15 9 0 8 -7 15 -15 15 -8 0
-15 -4 -15 -9z"/>
<path d="M4180 900 c0 -5 5 -10 11 -10 5 0 7 5 4 10 -3 6 -8 10 -11 10 -2 0
-4 -4 -4 -10z"/>
<path d="M1335 867 c-14 -11 -15 -16 -5 -22 9 -6 11 -4 5 5 -6 9 -4 12 7 8 9
-4 15 0 15 8 0 17 1 17 -22 1z"/>
<path d="M1306 839 c4 -8 -1 -9 -17 -5 -13 3 -18 3 -11 0 6 -3 9 -10 6 -16 -4
-6 3 -5 15 2 18 9 21 30 5 30 -3 0 -2 -5 2 -11z"/>
<path d="M1766 863 c-6 -14 -5 -15 5 -6 7 7 10 15 7 18 -3 3 -9 -2 -12 -12z"/>
<path d="M1864 836 c-6 -13 -8 -30 -4 -36 5 -8 12 0 19 21 13 38 13 39 4 39
-5 0 -13 -11 -19 -24z"/>
<path d="M1796 824 c-9 -22 -8 -24 9 -24 8 0 15 9 15 20 0 24 -15 27 -24 4z"/>
<path d="M1810 740 c0 -5 7 -10 15 -10 8 0 15 5 15 10 0 6 -7 10 -15 10 -8 0
-15 -4 -15 -10z"/>
<path d="M2080 768 c-14 -11 -18 -18 -10 -14 8 3 23 9 33 12 9 4 17 10 17 15
0 14 -13 10 -40 -13z"/>
<path d="M2068 723 c-33 -8 -18 -18 33 -21 30 -2 48 1 45 7 -3 5 0 12 6 14 7
3 0 6 -15 6 -16 1 -26 -3 -22 -9 3 -5 1 -10 -4 -10 -6 0 -11 5 -11 10 0 10 -3
11 -32 3z"/>
<path d="M2165 710 c-3 -5 1 -10 9 -10 9 0 16 5 16 10 0 6 -4 10 -9 10 -6 0
-13 -4 -16 -10z"/>
<path d="M1250 636 c0 -2 8 -10 18 -17 15 -13 16 -12 3 4 -13 16 -21 21 -21
13z"/>
<path d="M3695 630 c4 -6 11 -8 16 -5 14 9 11 15 -7 15 -8 0 -12 -5 -9 -10z"/>
<path d="M2016 573 c-8 -20 -3 -25 18 -17 20 8 21 20 2 27 -8 3 -17 -1 -20
-10z"/>
<path d="M2150 510 c-19 -11 -30 -19 -25 -19 6 0 26 8 45 19 19 11 31 19 25
19 -5 0 -26 -8 -45 -19z"/>
<path d="M3236 2887 c3 -10 9 -15 12 -12 3 3 0 11 -7 18 -10 9 -11 8 -5 -6z"/>
<path d="M4450 495 c-25 -13 -41 -24 -37 -25 11 0 87 39 87 45 0 7 0 7 -50
-20z"/>
<path d="M4475 480 c-3 -6 1 -7 9 -4 18 7 21 14 7 14 -6 0 -13 -4 -16 -10z"/>
<path d="M68 208 c-8 -22 -16 -28 -39 -28 l-28 0 0 -90 0 -90 357 0 356 0 -34
25 c-19 14 -38 25 -42 25 -5 0 -14 13 -19 29 -6 17 -22 33 -37 39 -23 9 -311
42 -364 42 -12 0 -18 10 -20 33 -3 31 -4 32 -62 37 -57 5 -59 5 -68 -22z m518
-123 c26 -19 -1 -20 -36 0 -23 13 -23 14 -4 15 11 0 29 -7 40 -15z m-291 -33
c3 -1 21 -2 40 -2 26 0 35 -4 35 -16 0 -14 -7 -15 -42 -9 -24 4 -52 7 -63 6
-11 -1 -39 1 -63 5 -33 4 -41 8 -33 18 7 8 27 10 66 6 30 -3 58 -7 60 -8z
m205 -21 c0 -16 -38 -23 -80 -16 -60 10 -48 25 20 25 33 0 60 -4 60 -9z"/>
<path d="M1828 133 c7 -3 16 -2 19 1 4 3 -2 6 -13 5 -11 0 -14 -3 -6 -6z"/>
<path d="M1993 125 c0 -8 8 -17 17 -20 9 -3 27 -16 39 -29 l21 -23 -41 -1
c-23 -1 -47 -8 -53 -17 -6 -8 -22 -18 -35 -23 -17 -6 0 -9 63 -11 70 -1 88 1
92 14 6 14 8 13 20 -2 8 -12 16 -15 23 -8 14 14 3 28 -52 59 -26 16 -50 33
-55 39 -4 7 -14 18 -23 24 -13 10 -16 10 -16 -2z"/>
<path d="M2007 79 c7 -7 15 -10 18 -7 3 3 -2 9 -12 12 -14 6 -15 5 -6 -5z"/>
<path d="M2350 10 c-9 -6 -10 -10 -3 -10 6 0 15 5 18 10 8 12 4 12 -15 0z"/>
<path d="M2700 10 c0 -5 5 -10 11 -10 5 0 7 5 4 10 -3 6 -8 10 -11 10 -2 0 -4
-4 -4 -10z"/>
</g>
</svg>
